<svg xmlns="http://www.w3.org/2000/svg" xmlns:xlink="http://www.w3.org/1999/xlink" width="660.6982421875" height="351.28857421875" viewBox="0 0 660.6982421875 351.28857421875" fill="none"><path id="路径 1" fill-rule="evenodd" style="fill:#ffffff" opacity="1" d="M132.605 6.31311C186.152 -6.48688 244.125 4.39313 291.325 32.0731C326.312 53.1931 356.765 80.7131 388.818 105.78C371.112 117.78 353.565 129.94 335.645 141.62C302.898 116.927 272.712 86.7401 233.085 73.1401C196.712 60.6071 154.258 58.7401 119.698 77.7801C84.2846 96.5531 59.9646 135.113 60.0176 175.433C58.9516 215.913 82.6846 255.167 117.778 274.847C155.592 296.607 203.858 293.727 242.312 275.167C289.938 251.86 322.632 208.02 351.965 165.353C383.485 116.393 411.538 65.3001 442.258 15.8601C448.978 3.32712 464.765 -3.39288 478.258 1.72711C490.792 5.72711 496.178 18.6871 502.152 29.1931C549.618 114.793 597.672 200.02 645.725 285.247C653.245 298.9 664.232 313.087 659.592 329.727C656.072 350.26 628.765 357.3 613.192 345.727C546.952 296.66 480.392 247.913 414.258 198.58C430.632 184.873 449.192 174.047 466.632 161.78C489.565 178.793 512.498 195.86 535.538 212.713C513.512 171.86 489.938 131.913 467.645 91.2201C425.032 157.3 390.258 229.993 332.605 284.873C291.218 325.993 234.152 354.1 174.792 350.847C82.7376 355.06 -0.622375 272.073 0.177612 180.5C-3.66238 100.82 55.2176 24.5001 132.605 6.31311Z"></path></svg>