<?xml version="1.0" encoding="UTF-8" standalone="no"?>
<!-- Created with Inkscape (http://www.inkscape.org/) -->

<svg
   version="1.1"
   id="svg48"
   width="1365.3333"
   height="1365.3333"
   viewBox="0 0 1365.3333 1365.3333"
   xmlns="http://www.w3.org/2000/svg"
   xmlns:svg="http://www.w3.org/2000/svg">
  <defs
     id="defs52" />
  <g
     id="g54">
    <path
       style="fill:#000000;stroke-width:1.33333"
       d="M -6.7273639e-6,684.7371 V 2.0704559 H 682.66655 1365.3333 V 684.7371 1367.4037 H 682.66655 -6.7273639e-6 Z M 397.61885,1286.6848 c 5.4205,-0.036 8.2541,-0.6596 9.088,-2 0.9094,-1.4618 1.804,-1.6 3.5857,-0.5537 3.0584,1.7959 10.3672,1.4914 12.8072,-0.5336 1.0425,-0.8652 2.8792,-1.1957 4.0815,-0.7343 1.2023,0.4614 2.9987,0.1643 3.9921,-0.6601 1.3661,-1.1338 2.2206,-0.9995 3.5075,0.5511 1.5261,1.8389 1.9531,1.8224 4.1442,-0.1606 1.8023,-1.631 4.0105,-2.034 8.4214,-1.5369 4.0444,0.4559 6.8856,0.039 8.7824,-1.29 1.5421,-1.0801 3.9444,-1.6656 5.3384,-1.3011 1.394,0.3645 3.2197,-0.1626 4.057,-1.1715 1.0354,-1.2476 2.2469,-1.4466 3.7875,-0.6221 1.3027,0.6972 3.0655,0.7177 4.1486,0.048 1.1452,-0.7078 2.5967,-0.5721 3.7031,0.3461 1.3615,1.13 2.4824,1.0963 4.4522,-0.1338 1.4479,-0.9043 5.1492,-1.5151 8.2251,-1.3575 3.0758,0.1577 6.9223,-0.4267 8.5477,-1.2986 1.8013,-0.9663 5.077,-1.246 8.3897,-0.7163 4.4782,0.7161 5.976,0.3604 8.5114,-2.0215 2.7092,-2.5452 3.2767,-2.6496 4.7502,-0.8741 1.1618,1.3998 2.3662,1.6457 3.9387,0.8041 1.3026,-0.6971 3.0654,-0.7176 4.1486,-0.048 1.1392,0.704 2.5852,0.5816 3.6593,-0.3098 2.182,-1.8109 9.7604,-2.2889 11.839,-0.7467 0.9229,0.6847 2.4031,0.254 3.7475,-1.0904 1.7188,-1.7188 3.6945,-2.0478 8.7211,-1.4525 5.1912,0.6148 7.1574,0.2517 9.7717,-1.8047 2.9548,-2.3242 3.4419,-2.3707 5.0122,-0.4786 2.17,2.6147 9.1194,1.5298 11.608,-1.8122 1.2184,-1.6362 1.9991,-1.8563 2.6794,-0.7554 1.0397,1.6821 10.1003,1.5779 13.9922,-0.161 1.3149,-0.5876 2.757,-0.7021 3.2045,-0.2546 0.4476,0.4476 2.6894,-0.3455 4.9818,-1.7623 2.8511,-1.762 4.7877,-2.1842 6.1288,-1.3361 3.0259,1.9136 8.1662,1.5081 10.7717,-0.8498 1.4187,-1.284 3.0489,-1.7013 4.1024,-1.0502 2.7862,1.722 11.8687,1.7648 12.5236,0.059 0.662,-1.7242 8.3297,-2.0476 10.8586,-0.4579 0.9001,0.5658 3.1179,0.048 4.9562,-1.1561 2.4442,-1.6015 4.7657,-1.9369 8.7482,-1.2641 4.0048,0.6766 6.3037,0.3375 8.7997,-1.2979 2.3409,-1.5338 3.8773,-1.8001 5.0018,-0.8668 1.5243,1.2651 9.4736,0.2608 12.4382,-1.5714 0.6715,-0.4151 2.0722,-0.2285 3.1126,0.4145 1.126,0.6959 2.5497,0.6228 3.5177,-0.1805 1.0997,-0.9126 2.4719,-0.897 4.2381,0.048 1.9305,1.0332 2.9919,0.9399 4.0687,-0.3574 1.7096,-2.0601 10.3608,-2.6822 11.507,-0.8276 0.4607,0.7455 2.1902,0.3576 4.1599,-0.9331 2.2682,-1.4861 5.7023,-2.1146 10.4949,-1.9208 5.4448,0.2203 7.4139,-0.2308 8.3561,-1.9142 1.0672,-1.9072 1.6228,-1.9605 4.1429,-0.3978 2.2388,1.3884 3.1412,1.4344 3.9104,0.1996 1.0922,-1.7532 9.5205,-2.7496 11.7264,-1.3863 0.7553,0.4668 3.1275,-0.2123 5.2715,-1.5091 3.0726,-1.8585 4.666,-2.0681 7.5231,-0.9897 2.7936,1.0545 4.6955,0.8576 8.2941,-0.8584 2.9245,-1.3946 4.9761,-1.7302 5.4904,-0.8981 0.7942,1.2852 9.1415,0.4308 11.9465,-1.2228 2.5721,-1.5163 10.0436,-1.0843 11.4951,0.6646 1.1975,1.4428 2.0834,1.2813 4.8321,-0.8808 3.7371,-2.9396 8.3487,-3.4383 10.6367,-1.1502 1.1075,1.1074 2.516,0.7718 5.4104,-1.2891 3.3933,-2.4163 4.4647,-2.5782 8.0655,-1.219 3.6267,1.3689 4.6481,1.2008 8.0679,-1.3275 3.1366,-2.319 4.1999,-2.5522 5.3453,-1.1722 1.4718,1.7734 8.9836,1.4217 11.4803,-0.5375 0.7333,-0.5755 4.7488,-0.8015 8.9233,-0.5024 4.2338,0.3035 7.9534,-0.044 8.412,-0.7861 0.4522,-0.7316 2.5132,-1.3302 4.5801,-1.3302 2.067,0 4.4827,-0.8731 5.3684,-1.9403 1.2799,-1.5422 2.1272,-1.6174 4.13,-0.3667 1.903,1.1885 2.896,1.1973 4.0574,0.036 1.1614,-1.1614 2.1584,-1.1533 4.0739,0.033 2.0112,1.2458 2.7782,1.1823 3.7049,-0.3069 1.3249,-2.1291 9.2743,-2.8957 11.6542,-1.1239 0.9584,0.7135 3.2113,0.3212 5.7778,-1.006 3.1783,-1.6436 5.1162,-1.8585 7.9259,-0.879 2.9018,1.0116 4.5152,0.7741 7.3424,-1.0805 2.9887,-1.9605 4.3151,-2.1158 7.5719,-0.8865 3.2329,1.2203 4.6902,1.0648 8.0403,-0.8579 3.1313,-1.7971 4.5236,-1.99 5.9313,-0.8217 1.389,1.1528 2.3294,1.1202 3.8395,-0.1332 1.6018,-1.3293 2.427,-1.3055 4.1443,0.1198 1.8139,1.5053 2.4041,1.4242 3.8306,-0.5266 1.0088,-1.3796 2.5648,-1.9691 3.8727,-1.4672 1.2025,0.4615 2.9991,0.1645 3.9925,-0.6599 1.3634,-1.1315 2.2092,-1.0133 3.4505,0.4824 1.4525,1.7502 2.1142,1.7383 5.6722,-0.1016 2.6841,-1.388 5.5753,-1.7926 8.6664,-1.2127 3.45915,0.6489 5.30155,0.2702 7.24605,-1.4895 2.0601,-1.8644 3.113,-2.0439 5.0166,-0.8551 1.841,1.1497 2.8455,1.0821 4.2588,-0.2865 2.1201,-2.0533 8.7923,-2.8415 12.0751,-1.4265 1.3126,0.5658 3.6405,0.032 5.6745,-1.3005 2.9456,-1.93 4.0428,-2.0138 7.5182,-0.5742 3.6264,1.502 4.5048,1.3635 8.0707,-1.2729 2.7338,-2.0211 4.5046,-2.546 5.5896,-1.6567 2.1172,1.7355 9.3905,1.2714 11.8322,-0.755 1.3856,-1.15 2.3665,-1.2067 3.3777,-0.1954 0.9977,0.9976 2.2067,1.0068 4.0307,0.031 1.5808,-0.8459 3.0867,-0.9133 3.8289,-0.1711 0.7421,0.7421 3.5756,0.412 7.2042,-0.8393 4.4852,-1.5467 6.5684,-1.6963 8.3295,-0.5982 1.7952,1.1193 3.1289,0.953 5.6608,-0.706 2.3122,-1.515 4.7119,-1.9077 7.9477,-1.3006 3.039,0.5701 5.9676,0.1807 8.5035,-1.1307 2.1274,-1.1002 4.2654,-1.603 4.7509,-1.1175 1.3228,1.3228 10.4072,0.434 12.3908,-1.2123 1.0942,-0.9081 2.3443,-0.9786 3.3978,-0.1916 1.356,1.0129 7.6339,1.3421 11.0908,0.5814 0.4166,-0.092 -0.505,-1.9395 -2.0479,-4.1064 -1.632,-2.2919 -3.5836,-3.6411 -4.666,-3.2258 -1.0233,0.3927 -3.6585,-0.6152 -5.8558,-2.2398 -2.1974,-1.6246 -4.9227,-2.5979 -6.0563,-2.1629 -1.1732,0.4502 -2.5778,-0.1327 -3.2609,-1.3534 -0.7482,-1.337 -2.2283,-1.8753 -3.9314,-1.4299 -1.8752,0.4903 -3.8799,-0.4844 -6.3947,-3.1094 -2.9521,-3.0812 -4.0357,-3.5145 -5.5815,-2.2317 -1.5207,1.2621 -2.2634,1.1199 -3.5842,-0.6864 -0.9163,-1.2531 -3.5014,-2.6455 -5.7447,-3.0941 -2.2432,-0.4487 -5.7279,-2.5373 -7.7437,-4.6413 -2.6395,-2.755 -4.4955,-3.6171 -6.6323,-3.0808 -1.6319,0.4095 -3.3694,0.094 -3.861,-0.7016 -0.4916,-0.7954 -2.2305,-1.1108 -3.8642,-0.7008 -1.6336,0.4101 -4.4969,0.1651 -6.3629,-0.5443 -1.9221,-0.7308 -4.1918,-0.7959 -5.2365,-0.1502 -1.0599,0.655 -2.5116,0.5856 -3.414,-0.1633 -1.0506,-0.872 -3.1487,-0.5501 -6.3427,0.973 -3.9082,1.8637 -5.4013,1.9896 -8.2424,0.6952 -2.9526,-1.3453 -3.9792,-1.1799 -6.8904,1.11 -2.1171,1.6653 -3.9843,2.2444 -4.8991,1.5194 -2.6596,-2.1078 -15.3109,-2.5971 -17.8229,-0.6893 -1.574,1.1954 -4.373,1.5055 -8.6889,0.9624 -4.9636,-0.6245 -6.9288,-0.2926 -8.916,1.5058 -1.48115,1.3403 -3.24975,1.8738 -4.22135,1.2733 -3.464,-2.1408 -16.2576,-1.9199 -18.7367,0.3237 -1.8851,1.706 -2.7763,1.8175 -4.3155,0.5401 -1.4184,-1.1771 -2.6578,-1.2256 -4.6108,-0.1804 -1.7678,0.9461 -2.9504,0.9774 -3.4972,0.092 -1.2808,-2.0722 -7.731,-1.5783 -11.2099,0.8585 -2.9111,2.039 -3.2222,2.0384 -4.3679,-0.01 -0.9401,-1.6799 -1.8278,-1.8861 -3.7324,-0.8668 -1.3744,0.7356 -3.5029,0.9521 -4.73,0.4812 -1.2443,-0.4774 -2.7066,-0.087 -3.3059,0.8828 -1.1035,1.7854 -8.9393,2.759 -11.3228,1.4068 -2.7206,-1.5434 -11.2446,-0.9117 -11.9338,0.8844 -0.5429,1.4147 -1.3074,1.4781 -3.5229,0.2924 -2.0079,-1.0746 -3.2435,-1.1005 -4.2548,-0.089 -1.0112,1.0113 -1.9508,0.9888 -3.2356,-0.078 -1.348,-1.1187 -2.5818,-1.0898 -4.8298,0.1134 -3.0849,1.651 -6.7915,1.8907 -16.2231,1.0493 -2.9334,-0.2616 -5.986,0.015 -6.7838,0.6143 -1.7317,1.3015 -8.4058,1.6189 -16.2516,0.773 -3.1361,-0.3381 -6.0427,-0.063 -6.4592,0.6103 -0.4164,0.6738 -4.1505,1.0716 -8.2979,0.884 -4.7262,-0.2137 -8.6299,0.356 -10.4586,1.5264 -2.4247,1.5519 -3.4666,1.5737 -6.1666,0.1287 -2.3705,-1.2687 -3.9599,-1.3584 -5.8781,-0.3318 -1.8969,1.0153 -3.0665,0.9696 -4.1999,-0.1638 -1.2056,-1.2056 -2.2537,-1.1444 -4.5076,0.2631 -1.6363,1.0219 -5.8403,1.7313 -9.4938,1.602 -4.4997,-0.1593 -7.3251,0.463 -9.0049,1.9832 -1.8767,1.6984 -2.8769,1.8595 -4.2857,0.6903 -3.188,-2.6459 -16.2214,-2.5165 -19.2137,0.1907 -2.3201,2.099 -2.8057,2.1387 -4.2898,0.3505 -1.1173,-1.3463 -2.366,-1.629 -3.7568,-0.8507 -1.2209,0.6833 -3.6523,0.6189 -5.8738,-0.1555 -2.8548,-0.9952 -4.5263,-0.8393 -6.7712,0.6316 -3.0558,2.0023 -8.8656,2.1315 -16.7914,0.3736 -3.5046,-0.7774 -5.2986,-0.3926 -8.2116,1.761 -2.9483,2.1798 -4.0201,2.4028 -5.1286,1.0673 -1.479,-1.7822 -10.8421,-1.3959 -10.8421,0.4473 0,0.5685 -3,1.0336 -6.6667,1.0336 -3.7248,0 -6.6666,-0.6117 -6.6666,-1.3862 0,-0.7623 -1.05,-0.4755 -2.3334,0.6375 -2.9826,2.5868 -10.6317,4.0642 -11.7419,2.268 -0.4649,-0.7523 -2.531,-0.9975 -4.5914,-0.545 -2.2014,0.4835 -4.1279,0.205 -4.6721,-0.6754 -0.6601,-1.068 -1.558,-0.9516 -3.1269,0.4056 -2.8977,2.5071 -10.8677,4.025 -10.8677,2.0704 0,-0.9142 -1.4871,-1.1692 -3.9483,-0.677 -2.1715,0.4343 -4.3311,0.1702 -4.799,-0.5869 -0.5388,-0.8717 -1.7493,-0.5633 -3.301,0.841 -1.3477,1.2196 -3.1144,1.807 -3.926,1.3054 -0.8117,-0.5016 -2.3608,-0.1776 -3.4424,0.7201 -1.5762,1.3081 -2.4531,1.1918 -4.4171,-0.5856 -2.2692,-2.0535 -2.5846,-2.0559 -4.264,-0.033 -1.4022,1.6896 -3.2513,2.0149 -8.154,1.4342 -3.692,-0.4373 -6.6898,-0.1858 -7.1767,0.602 -0.5156,0.8343 -1.8078,0.4737 -3.3705,-0.9405 -2.3987,-2.1708 -2.6754,-2.1658 -5.171,0.093 -2.0026,1.8123 -3.9747,2.2067 -8.1997,1.6401 -3.7894,-0.5083 -6.5433,-0.1038 -8.638,1.2686 -1.6938,1.1099 -3.821,1.5538 -4.7357,0.9885 -0.9135,-0.5646 -3.8912,-0.8948 -6.6172,-0.734 -2.726,0.1609 -5.3591,-0.359 -5.8512,-1.1553 -0.5816,-0.9411 -2.4387,-0.2701 -5.307,1.9177 -3.5398,2.6999 -4.6975,3.0217 -5.8547,1.6273 -1.752,-2.111 -9.2708,-1.3105 -12.268,1.3061 -1.1595,1.0123 -2.5489,1.3998 -3.0876,0.8611 -2.0195,-2.0195 -17.2053,-1.7433 -19.524,0.355 -1.9854,1.7969 -2.4145,1.7984 -3.8957,0.014 -1.2641,-1.5231 -2.2928,-1.6693 -4.2764,-0.6077 -1.8743,1.0031 -3.1477,0.9531 -4.5093,-0.1769 -2.209,-1.8333 -8.2206,-0.6772 -11.4076,2.1938 -1.8728,1.6871 -2.3561,1.672 -3.8436,-0.1202 -1.2953,-1.5609 -2.1365,-1.689 -3.5245,-0.5371 -1.3728,1.1394 -2.3489,1.0767 -3.9521,-0.2539 -1.7977,-1.4919 -2.3319,-1.4045 -3.4323,0.5619 -0.8663,1.548 -2.1855,2.0487 -3.935,1.4935 -1.4474,-0.4594 -3.4233,-0.1783 -4.3908,0.6246 -1.3031,1.0815 -2.1869,0.9445 -3.4093,-0.5284 -1.1626,-1.4008 -2.3366,-1.6211 -3.9727,-0.7456 -1.5483,0.8287 -2.8648,0.7082 -3.9497,-0.3613 -1.2696,-1.2515 -1.9741,-1.1645 -3.2043,0.3957 -1.6512,2.0943 -9.7249,2.6823 -12.5392,0.9132 -0.9025,-0.5673 -3.1419,-0.033 -5.021,1.1985 -2.4362,1.5963 -4.866,1.9867 -8.6238,1.3858 -3.1685,-0.5066 -5.5788,-0.2753 -6.1114,0.5865 -0.5833,0.9437 -1.6688,0.7088 -3.2227,-0.6974 -2.0733,-1.8764 -2.5335,-1.8911 -3.9968,-0.128 -1.2229,1.4735 -3.8245,1.8827 -9.9882,1.5711 -4.584,-0.2318 -9.0637,-0.8721 -9.9548,-1.4229 -0.8952,-0.5532 -2.674,-0.048 -3.9746,1.1292 -2.5773,2.3324 -10.1815,2.8946 -11.4474,0.8464 -0.4631,-0.7493 -2.5353,-0.2253 -4.974,1.2578 -3.1725,1.9293 -4.798,2.2116 -6.7425,1.171 -1.4092,-0.7542 -4.0637,-0.9944 -5.8989,-0.5338 -1.8464,0.4634 -4.1729,0.1434 -5.2091,-0.7166 -1.4393,-1.1945 -2.3825,-1.1307 -4.0772,0.2759 -1.3029,1.0814 -5.4437,1.8514 -10.1231,1.8823 -6.1465,0.041 -8.2133,0.5793 -9.2362,2.4073 -1.0684,1.909 -1.6922,2.0442 -3.2949,0.7141 -3.0037,-2.4928 -14.9611,-2.6864 -18.6014,-0.3012 -1.699,1.1132 -3.8168,1.5742 -4.7063,1.0245 -0.8894,-0.5497 -4.8325,-1.1419 -8.7623,-1.316 -10.691,-0.4735 -13.8821,4.2488 -8.7464,12.9429 1.696,2.871 3.0544,3.7523 5.0224,3.2584 2.0663,-0.5186 4.8501,1.6716 11.8959,9.3595 7.2374,7.8968 9.7979,9.886 12.01,9.3308 2.2302,-0.5598 5.0816,1.7392 13.7884,11.117 8.1808,8.8112 11.6234,11.6535 13.5152,11.1588 1.7325,-0.4531 4.1635,1.0025 7.6576,4.5849 6.6253,6.793 10.3824,8.707 15.0704,7.6774 2.2234,-0.4884 4.1727,-0.2222 4.7072,0.6426 0.6501,1.0518 1.5119,0.9785 2.9983,-0.2553 1.1714,-0.9722 5.5395,-1.7543 9.9622,-1.7836 z M 283.28615,1174.737 c 0.451,-5.8666 0.7488,-16.5672 0.6619,-23.7789 -0.1286,-10.6597 0.2689,-13.5843 2.1251,-15.6353 1.2557,-1.3876 2.8595,-2.1667 3.5639,-1.7313 0.7044,0.4353 5.0798,1.0228 9.723,1.3054 6.4705,0.3939 8.9412,0.015 10.5783,-1.6221 1.4031,-1.4031 2.6949,-1.7108 3.7654,-0.8969 2.8731,2.1846 17.7196,1.9938 19.5832,-0.2517 1.2649,-1.5241 2.2854,-1.6649 4.2905,-0.5918 1.447,0.7744 3.4402,1.0974 4.4295,0.7178 0.9892,-0.3796 3.5591,-0.026 5.7108,0.7865 3.3338,1.2584 4.5171,1.046 8.0036,-1.4366 2.5058,-1.7844 4.4165,-2.3873 4.9303,-1.5559 1.3791,2.2314 17.4161,1.6856 19.3619,-0.6589 1.2382,-1.492 2.1298,-1.6378 3.4278,-0.5605 0.9649,0.8008 5.068,1.6582 9.1179,1.9054 5.656,0.3451 8.0982,-0.1286 10.532,-2.043 2.0148,-1.5849 3.6325,-2.0283 4.443,-1.2179 0.7009,0.701 4.6291,1.4226 8.7293,1.6035 5.5466,0.2447 8.1098,-0.2637 10.0138,-1.9862 1.8225,-1.6489 2.9708,-1.9033 3.9901,-0.884 2.3326,2.3326 15.3105,2.5527 18.8217,0.3192 2.234,-1.4212 3.5653,-1.57 4.8091,-0.5378 2.1704,1.8013 10.2795,0.2951 12.1718,-2.2608 1.2009,-1.622 1.6594,-1.5872 3.1769,0.2412 1.3533,1.6307 2.2053,1.7784 3.5965,0.6238 1.2606,-1.0462 2.3374,-1.0892 3.4898,-0.1395 1.976,1.6285 9.523,1.2375 11.9551,-0.6194 0.9414,-0.7187 4.1116,-1.0378 7.0449,-0.7091 8.6478,0.969 15.2943,0.6404 17.0838,-0.8447 0.9978,-0.8281 2.4319,-0.9184 3.5557,-0.2239 1.0894,0.6733 2.8634,0.6396 4.2077,-0.08 1.4785,-0.7912 2.625,-0.7574 3.1506,0.093 1.2547,2.0303 7.7029,1.5979 11.0412,-0.7403 1.671,-1.1704 3.6922,-1.623 4.63,-1.0368 0.9154,0.5722 5.2643,1.1408 9.6643,1.2634 4.4,0.1225 9.0222,0.6426 10.2715,1.1557 1.3099,0.5379 3.5366,0.047 5.2599,-1.1603 2.0774,-1.4551 4.5285,-1.8469 8.0409,-1.2852 3.5875,0.5736 6.051,0.1537 8.496,-1.4484 2.1568,-1.4131 4.0329,-1.8119 5.0209,-1.067 2.9008,2.1868 15.8085,1.8601 18.3779,-0.4652 1.4752,-1.335 3.0235,-1.7148 4.1156,-1.0096 0.9628,0.6219 5.507,1.187 10.098,1.2558 4.5911,0.069 8.7411,0.5188 9.2222,1 1.5403,1.5402 4.8147,0.9404 7.3394,-1.3444 2.2985,-2.0802 2.645,-2.0383 5.5243,0.6666 4.0097,3.7669 4.9987,3.654 9.5434,-1.0896 2.6585,-2.7749 4.2857,-3.58 5.3875,-2.6655 0.8683,0.7206 3.0166,1.2249 4.7739,1.1207 1.7574,-0.1041 4.7213,0.2292 6.5863,0.7408 2.4289,0.6664 4.3732,0.1578 6.8526,-1.7926 3.0038,-2.3627 3.676,-2.4646 5.0824,-0.77 1.1785,1.4201 2.2892,1.595 4.0711,0.6414 1.6694,-0.8935 3.5659,-0.8033 5.9497,0.2829 2.9085,1.3252 4.2528,1.1885 7.9627,-0.8094 2.4549,-1.3221 5.1559,-1.9758 6.0023,-1.4527 0.8464,0.5231 4.6282,1.1647 8.4042,1.4258 5.0359,0.3482 7.5183,-0.1163 9.3159,-1.743 1.8955,-1.7154 2.9833,-1.8851 4.8021,-0.7492 1.2934,0.8077 3.9633,1.1605 5.9331,0.7839 1.9699,-0.3766 4.4569,0.042 5.5269,0.9298 1.5609,1.2955 2.7654,1.0306 6.095,-1.3403 2.9446,-2.0967 4.5636,-2.541 5.5748,-1.5298 0.7838,0.7837 3.0781,1.0944 5.0984,0.6903 2.0204,-0.404 4.7816,-0.1145 6.136,0.6435 1.875,1.0493 3.5061,0.7331 6.8365,-1.3251 3.0585,-1.8903 4.8638,-2.2971 6.0029,-1.3526 2.3285,1.9306 14.3115,1.5451 18.5534,-0.5969 2.5438,-1.2845 3.8546,-1.3868 4.495,-0.3505 0.5271,0.8527 2.5843,1.1267 4.9332,0.6569 2.2161,-0.4432 4.8002,-0.166 5.7426,0.6161 1.2343,1.0244 2.8098,0.8549 5.6353,-0.6062 2.5526,-1.32 5.6416,-1.7491 8.847,-1.2289 3.7859,0.6144 5.8076,0.1467 8.7407,-2.0218 2.4209,-1.7898 3.9991,-2.2703 4.3176,-1.3146 0.2776,0.8326 4.18,1.7069 8.7252,1.9547 7.0347,0.3835 8.6089,0.034 10.8924,-2.4168 2.1378,-2.2946 2.8164,-2.4816 3.4083,-0.9392 1.104,2.8771 16.4842,3.0769 19.6027,0.2547 1.5984,-1.4465 2.8945,-1.7152 4.044,-0.8382 2.9554,2.2548 17.7606,2.0708 19.6822,-0.2446 1.2877,-1.5516 2.1341,-1.6811 3.512,-0.5376 0.9985,0.8287 3.4385,1.1964 5.4223,0.8172 1.9838,-0.3792 4.9454,-0.1806 6.5814,0.4415 2.1999,0.8364 3.8775,0.4206 6.4419,-1.5966 2.3501,-1.8485 3.9913,-2.3152 5.093,-1.4482 0.894,0.7035 4.7364,1.6287 8.5386,2.056 5.5648,0.6253 7.5406,0.2833 10.1299,-1.7535 2.2262,-1.7511 3.6437,-2.1035 4.6029,-1.1443 2.5666,2.5666 14.8144,2.3669 18.2006,-0.2967 2.3826,-1.8741 3.4396,-2.0631 4.6679,-0.8347 2.3041,2.304 14.9035,2.3568 18.5314,0.078 2.7335,-1.7173 3.4014,-1.6338 6.5132,0.8139 1.90705,1.5001 4.82225,2.7274 6.47825,2.7274 1.656,0 3.3721,0.9414 3.8136,2.0919 0.5483,1.4287 1.69,1.8104 3.6011,1.2038 2.0187,-0.6407 3.8646,0.1334 6.6251,2.778 2.9122,2.7901 4.2494,3.3153 5.5959,2.1978 1.3628,-1.131 2.6191,-0.4032 5.469,3.1685 2.0348,2.5502 4.4104,4.5484 5.2789,4.4404 3.3338,-0.4145 5.0052,0.2123 7.6685,2.8755 2.0948,2.0949 3.1848,2.3999 4.5443,1.2716 1.3696,-1.1367 2.5836,-0.6891 5.1835,1.9108 1.8673,1.8673 4.8581,3.395 6.6464,3.395 1.7882,0 3.6125,0.9414 4.054,2.092 0.5299,1.3809 1.7015,1.8067 3.4471,1.2526 1.7911,-0.5685 3.8051,0.237 6.2414,2.496 2.5713,2.3842 4.2156,3.0042 5.7665,2.1742 1.5493,-0.8292 2.6289,-0.4255 3.7765,1.4121 0.9241,1.4797 3.0933,2.5731 5.1049,2.5731 2.2519,0 5.0234,1.6175 7.7804,4.5408 2.8997,3.0746 4.8611,4.1832 6.0743,3.4333 1.1257,-0.6957 3.0048,-0.1532 5.0548,1.4593 1.7946,1.4117 4.6609,2.5666 6.3695,2.5666 1.7486,0 3.7345,1.1732 4.5429,2.6837 1.1152,2.0838 1.9785,2.3933 3.8629,1.3848 1.8894,-1.0111 3.1239,-0.5565 5.5753,2.0529 2.2588,2.4043 4.0147,3.1341 6.2133,2.5823 2.0104,-0.5046 3.3222,-0.098 3.8134,1.1821 0.4118,1.0732 2.6487,2.35 4.9707,2.8373 2.3221,0.4873 6.1201,2.6914 8.4401,4.898 2.32,2.2066 4.8758,3.6056 5.6795,3.1088 0.8038,-0.4967 3.0366,0.3358 4.9617,1.8502 1.9252,1.5143 4.5459,2.7533 5.8239,2.7533 1.278,0 3.0606,0.888 3.9613,1.9734 0.9008,1.0853 2.9243,1.9041 4.4966,1.8195 1.5724,-0.084 3.9089,0.2916 5.1922,0.836 3.6562,1.5508 2.9526,-3.5824 -1,-7.2956 -1.8333,-1.7223 -3.3333,-4.4122 -3.3333,-5.9776 0,-1.5653 -0.8809,-4.0107 -1.9576,-5.4342 -1.0767,-1.4235 -1.9767,-3.8235 -2,-5.3334 -0.023,-1.5098 -0.9233,-3.9098 -2,-5.3333 -1.0767,-1.4235 -1.9767,-3.8953 -2,-5.4929 -0.023,-1.5976 -0.8552,-3.7176 -1.8487,-4.711 -0.9934,-0.9935 -2.1367,-3.5863 -2.5407,-5.7619 -1.1382,-6.1298 -4.0004,-12.7835 -8.0006,-18.5985 -2.0088,-2.9203 -3.6715,-6.5203 -3.6948,-8 -0.023,-1.4798 -0.9234,-3.8552 -2,-5.2787 -1.0767,-1.4235 -1.9576,-3.9381 -1.9576,-5.588 0,-1.6499 -0.6,-3.3706 -1.3334,-3.8238 -0.7333,-0.4533 -1.3537,-1.8387 -1.3785,-3.0787 -0.025,-1.2401 -1.2046,-4.6547 -2.6215,-7.5881 -1.4169,-2.9333 -2.5965,-6.0914 -2.6214,-7.018 -0.052,-1.9494 -0.3541,-2.6114 -8.6525,-18.9819 -0.9293,-1.8333 -2.4144,-5.4333 -3.3002,-8 -0.8858,-2.5666 -3.4092,-9.4666 -5.6076,-15.3333 -2.1984,-5.8667 -4.5119,-12.1667 -5.1411,-14 -0.6292,-1.8333 -2.4366,-6.6333 -4.0163,-10.6667 -4.6845,-11.96041 -5.443,-15.48531 -5.5203,-25.65551 -0.1005,-13.2311 1.9951,-31.6915 4.0197,-35.4086 1.2924,-2.3729 1.3314,-4.6894 0.1731,-10.2692 -1.0611,-5.1112 -1.0847,-7.9733 -0.081,-9.84827 0.778,-1.45371 1.4145,-6.60367 1.4145,-11.44435 0,-5.59973 0.7316,-9.91781 2.0113,-11.87082 1.342,-2.04819 2.0043,-6.3583 1.9905,-12.95308 -0.041,-19.241 0.6814,-31.24157 1.9982,-33.21684 1.4024,-2.10353 3.1094,-17.38384 3.9472,-35.33333 0.8762,-18.76956 2.1622,-30.58614 3.6584,-33.6151 0.888,-1.79756 1.1504,-6.60025 0.6722,-12.3041 -0.4466,-5.32722 -0.2447,-9.6892 0.4689,-10.13026 0.6893,-0.42602 1.2533,-5.71918 1.2533,-11.76257 0,-7.00717 0.6033,-11.59122 1.6652,-12.65309 0.9543,-0.95436 1.7956,-5.7636 1.9708,-11.26667 0.5375,-16.8785 1.6029,-27.60032 3.0024,-30.21537 0.7489,-1.39931 1.3616,-6.74823 1.3616,-11.88649 0,-5.1735 0.634,-9.73415 1.4209,-10.22043 0.8076,-0.49917 1.3774,-4.99241 1.3202,-10.41201 -0.1757,-16.64762 0.8329,-31.4131 2.2658,-33.16858 1.5572,-1.90784 3.0572,-20.45647 2.9027,-35.89381 -0.059,-5.92704 0.4964,-10.56504 1.3275,-11.07869 0.7962,-0.49207 1.4296,-5.00477 1.4296,-10.18509 0,-5.69022 0.7263,-10.4481 1.8707,-12.25464 1.4562,-2.29875 1.6051,-4.82122 0.6719,-11.38391 -0.7681,-5.40215 -0.7217,-9.32227 0.1293,-10.91235 0.7304,-1.36484 1.3281,-6.46041 1.3281,-11.3235 0,-4.8631 0.75,-10.15254 1.6666,-11.75432 1.5513,-2.71072 2.3625,-14.98066 2.346,-35.48406 0,-5.37889 0.737,-9.70706 1.9902,-11.61975 1.2542,-1.91406 1.9972,-6.25755 1.9972,-11.67483 0,-4.74472 0.5961,-10.19461 1.3246,-12.11087 0.8789,-2.31149 0.8755,-5.48832 -0.01,-9.4392 -1.0414,-4.64684 -0.893,-7.01193 0.6754,-10.76554 1.1242,-2.69059 2.0099,-8.81698 2.0099,-13.90224 0,-5.02755 0.6386,-9.48652 1.4287,-9.9748 0.8405,-0.51946 1.3582,-5.08063 1.2574,-11.07868 -0.2213,-13.17123 1.6294,-33.62954 3.2743,-36.19571 1.3297,-2.07443 2.1932,-16.17226 2.0293,-33.1335 -0.052,-5.3901 0.5497,-10.57658 1.3372,-11.5255 0.7876,-0.94893 1.8,-4.83322 2.2499,-8.63177 0.9849,-8.31557 5.0188,-12.08089 10.3436,-9.65476 1.7295,0.788 4.3372,1.12084 5.7949,0.73964 1.4577,-0.3812 3.0545,-0.0392 3.5484,0.76001 0.6156,0.99606 1.681,1.0341 3.3873,0.12094 1.369,-0.73268 3.4075,-0.97976 4.5299,-0.54904 1.4253,0.54693 2.315,-0.30964 2.9501,-2.84018 1.1892,-4.73816 -1.4522,-26.39289 -3.2942,-27.0069 -1.3451,-0.44836 -12.3812,-11.59692 -21.1631,-21.37878 -2.2681,-2.52634 -4.9756,-4.24684 -6.2948,-4 -1.5973,0.2989 -2.7898,-0.91324 -3.8469,-3.90996 -0.8426,-2.38873 -5.3176,-8.19236 -9.9444,-12.89696 -5.1154,-5.20145 -8.9139,-10.3703 -9.6921,-13.1887 -0.7395,-2.67815 -4.9278,-8.57516 -9.921,-13.96819 -5.2844,-5.70698 -8.6418,-10.49389 -8.6418,-12.32033 0,-1.94765 -3.8314,-6.88797 -11.0111,-14.19793 -10.8652,-11.06231 -11.1155,-11.22168 -18.8775,-12.0228 l -7.8664,-0.81187 0.8895,9.57027 c 0.6969,7.49814 0.4455,10.24785 -1.161,12.69972 -1.5002,2.28956 -1.9969,6.2807 -1.8505,14.87116 0.2403,14.11103 -0.7232,15.32234 -11.6686,14.6697 -3.9993,-0.23847 -7.6165,-0.77861 -8.0382,-1.20033 -0.4218,-0.42174 -2.0379,-0.0456 -3.5915,0.83582 -1.5536,0.88143 -7.6247,1.75052 -13.4914,1.93131 -5.8666,0.18079 -12.4666,0.41924 -14.6666,0.52989 -2.2,0.11067 -7,-0.12653 -10.6667,-0.52705 -4.6324,-0.50603 -7.6006,-0.1324 -9.7274,1.22448 -1.8818,1.20055 -4.193,1.58539 -6,0.99907 -4.8819,-1.58398 -13.3997,-1.36555 -16.93935,0.43437 -4.1002,2.08503 -7.0101,2.16807 -8.9235,0.25465 -1.0259,-1.02585 -2.2277,-1.0443 -4.0624,-0.0624 -1.8465,0.9882 -3.0406,0.95938 -4.0989,-0.0989 -1.1023,-1.10227 -2.8937,-0.86191 -6.8403,0.91776 -3.6643,1.65233 -5.8811,1.99532 -7.0443,1.08984 -1.8632,-1.45045 -11.5151,-1.48341 -13.8388,-0.0472 -1.8594,1.14917 -18.7631,0.53104 -20.0264,-0.73233 -0.522,-0.52194 -2.0342,0.0332 -3.3606,1.23352 -1.7744,1.60576 -3.8942,1.98362 -8.0223,1.42993 -3.6614,-0.49109 -6.9279,-0.0713 -9.4024,1.20825 -2.0855,1.07843 -4.495,1.52614 -5.3546,0.9949 -2.7771,-1.71635 -14.9383,-1.32832 -17.9669,0.57325 -1.6177,1.01577 -3.48,1.51393 -4.1384,1.10704 -3.0611,-1.89187 -16.7103,-1.91889 -19.5797,-0.0388 -2.0218,1.32472 -4.0034,1.59693 -6.1605,0.84625 -1.749,-0.60866 -5.88,-0.91772 -9.18,-0.68678 -16.2057,1.13409 -24.1726,1.18861 -24.8023,0.16972 -0.3811,-0.61655 -1.7388,-0.56124 -3.0171,0.12293 -1.3443,0.71947 -3.1183,0.75315 -4.2077,0.0799 -1.1392,-0.70407 -2.5852,-0.58164 -3.6593,0.3098 -2.1896,1.81717 -9.7637,2.28681 -11.8531,0.73494 -0.9347,-0.69421 -3.2508,-0.1028 -5.8953,1.50548 -3.3525,2.03879 -4.9549,2.32832 -6.9567,1.25698 -1.4305,-0.76558 -4.2401,-1.06411 -6.2436,-0.66342 -2.0035,0.4007 -4.316,0.0552 -5.1389,-0.76774 -1.1062,-1.10614 -2.1129,-0.94232 -3.8611,0.62829 -1.686,1.51467 -4.5011,2.02749 -9.8063,1.78639 -4.0928,-0.186 -7.9928,-0.65918 -8.6667,-1.0515 -1.7211,-1.00198 -10.8861,-0.506 -12.0439,0.65179 -1.6214,1.62139 -4.8496,1.06928 -7.4365,-1.27184 -2.3151,-2.09517 -2.71,-2.04988 -6.4894,0.74435 -3.5213,2.6034 -5.226,2.89949 -13.6398,2.36901 -5.2886,-0.33343 -10.2446,-0.0953 -11.0134,0.52912 -1.2628,1.02564 -4.6076,1.27825 -15.5588,1.17508 -1.9928,-0.0188 -4.0024,-0.64753 -4.4657,-1.39724 -0.5333,-0.86291 -1.6716,-0.61277 -3.1019,0.68161 -1.2426,1.1246 -4.0331,2.0598 -6.2009,2.0782 -2.1679,0.0184 -6.9416,0.0513 -10.6083,0.0731 -3.6666,0.0219 -11.0323,0.24299 -16.3682,0.49152 -5.3359,0.24853 -10.0172,-0.0587 -10.4029,-0.68281 -0.3857,-0.6241 -2.02,-0.31276 -3.6317,0.69185 -4.2958,2.67755 -10.2638,3.84195 -10.2638,2.00253 0,-0.96645 -1.3945,-1.2465 -3.8056,-0.76429 -2.093,0.41861 -4.3985,0.16819 -5.1232,-0.55651 -0.8679,-0.86793 -1.9001,-0.61576 -3.0243,0.7389 -1.9406,2.33824 -11.4132,2.82728 -12.7536,0.65842 -0.5946,-0.96216 -1.4289,-0.92932 -2.6755,0.10534 -1.1862,0.98442 -2.5841,1.07102 -4.0496,0.25089 -1.4875,-0.83244 -3.4114,-0.66996 -5.7365,0.48451 -3.5916,1.78329 -15.7117,1.81898 -18.5664,0.0547 -0.8793,-0.54341 -2.3486,-0.50746 -3.2653,0.0799 -0.9167,0.58733 -3.6052,1.74809 -5.9744,2.57944 -3.4533,1.21173 -4.6153,1.14109 -5.8579,-0.35617 -1.3257,-1.59736 -1.8652,-1.58252 -3.7271,0.1024 -1.552,1.40453 -4.5669,1.85349 -10.501,1.56372 -4.5781,-0.22358 -8.7145,-0.79712 -9.192,-1.27456 -0.4774,-0.47746 -2.16,-0.0216 -3.7391,1.01306 -2.9353,1.9233 -16.1125,2.12406 -19.079,0.29068 -0.8364,-0.51698 -2.8878,-0.0873 -4.5585,0.95483 -2.9658,1.84995 -17.4611,2.237 -19.1859,0.51231 -0.4346,-0.43463 -2.8529,0.19344 -5.3741,1.39568 -3.6141,1.72348 -5.3894,1.88188 -8.3913,0.74877 -2.0941,-0.79044 -4.6001,-0.94728 -5.5689,-0.34855 -0.9705,0.59983 -2.4897,0.48415 -3.3835,-0.25766 -1.123,-0.932 -2.6552,-0.66938 -4.9795,0.8535 -2.2373,1.46599 -4.3797,1.862 -6.4225,1.18716 -5.4665,-1.80585 -14.9604,-1.56276 -18.0556,0.46234 -2.0064,1.31273 -4.1999,1.62382 -6.6667,0.94549 -5.3822,-1.48004 -14.1216,-1.71867 -15.7941,-0.43127 -1.6884,1.29959 -16.4973,0.87915 -18.7312,-0.5318 -0.8335,-0.52649 -2.257,-0.0639 -3.1632,1.02807 -2.1246,2.55999 -5.8684,2.53907 -8.0128,-0.0448 -0.9267,-1.11656 -2.7074,-1.70557 -3.9571,-1.30893 -1.3836,0.43914 -3.6524,-0.65907 -5.8016,-2.80824 -2.8517,-2.85176 -3.901,-3.22099 -5.4649,-1.92304 -1.5601,1.2947 -2.271,1.06933 -3.6642,-1.16167 -0.9508,-1.52236 -3.0826,-2.76797 -4.7375,-2.76797 -1.6548,0 -5.2605,-2.01302 -8.0126,-4.47338 -2.7521,-2.46036 -5.6913,-4.23118 -6.5316,-3.93517 -0.8403,0.29601 -3.5403,-0.68872 -6,-2.18831 -2.4597,-1.49957 -5.5222,-2.72876 -6.8055,-2.73149 -1.2834,-0.003 -2.3334,-0.60499 -2.3334,-1.33832 0,-0.73333 -1.8,-1.33333 -4,-1.33333 -2.2811,0 -5.1989,-1.19888 -6.7899,-2.78994 -1.6233,-1.62332 -3.833,-2.51718 -5.2843,-2.13765 -1.3719,0.35876 -3.1899,-0.18576 -4.04,-1.21005 -0.8501,-1.02431 -2.4295,-1.86236 -3.5099,-1.86236 -1.0803,0 -3.8483,-1.34162 -6.1511,-2.98136 -2.3029,-1.63973 -5.3214,-2.78916 -6.7079,-2.55427 -1.4966,0.25354 -4.0474,-1.24412 -6.2771,-3.6853 -2.2278,-2.43908 -5.0766,-4.1124 -7.0013,-4.1124 -1.7849,0 -4.0268,-0.94172 -4.9821,-2.0927 -0.9552,-1.15098 -2.7871,-1.81804 -4.0708,-1.48233 -1.3508,0.35325 -3.6243,-0.76305 -5.397,-2.65003 -1.9422,-2.06734 -4.0049,-3.01405 -5.6372,-2.5872 -1.4288,0.37364 -4.0434,-0.48244 -5.8759,-1.92394 -1.816,-1.42843 -4.3474,-2.59714 -5.6254,-2.59714 -1.2779,0 -3.1051,-0.94172 -4.0603,-2.09269 -0.9553,-1.15099 -2.8097,-1.81215 -4.1209,-1.46925 -1.4745,0.3856 -4.2169,-1.1051 -7.1881,-3.9073 -2.7807,-2.62257 -6.1855,-4.53076 -8.0842,-4.53076 -1.8042,0 -3.6256,-0.9 -4.0477,-2 -0.4222,-1.1 -2.2587,-2 -4.0812,-2 -1.8226,0 -4.7967,-1.16648 -6.6091,-2.59216 -1.8125,-1.42569 -4.1571,-2.32569 -5.2103,-2 -6.55199,2.02615 -6.39839,1.70206 -2.97469,6.27343 1.779,2.37531 4.34179,7.91873 5.69519,12.31873 1.3535,4.4 2.9025,8.9 3.4425,10 0.5399,1.1 2.0038,4.7 3.2531,8 1.2493,3.3 3.1109,7.97036 4.1369,10.37857 1.026,2.40822 1.8654,5.42151 1.8654,6.6962 0,1.27471 1.7085,4.40435 3.7967,6.95478 2.0881,2.55041 4.1282,6.13712 4.5335,7.97045 0.4052,1.83333 2.0644,6.63333 3.6871,10.66667 1.6227,4.03333 3.2517,8.99068 3.6202,11.01632 0.3685,2.02564 1.2008,4.01105 1.8496,4.41202 0.6487,0.40096 1.1833,1.74363 1.1878,2.98368 0,1.24006 0.9045,3.97323 2,6.07372 1.0955,2.1005 1.9918,4.92962 1.9918,6.28694 0,1.35732 1.8,4.51794 4,7.02361 2.2,2.50565 4,5.50619 4,6.66783 0,2.09797 2.5514,8.74689 6.1311,15.97726 1.0279,2.0761 1.8689,4.81142 1.8689,6.0785 0,1.26708 0.8809,3.46845 1.9576,4.89194 1.0766,1.4235 1.9957,3.78818 2.0424,5.25484 0.047,1.46667 0.9657,3.83135 2.0424,5.25484 1.0766,1.4235 1.9576,3.93064 1.9576,5.57143 0,1.64079 0.9,3.88325 2,4.98325 1.1,1.1 2,3.28231 2,4.84956 0,1.56727 0.6391,4.04387 1.4203,5.50357 2.6775,5.00282 2.9855,18.39008 0.5687,24.71822 -1.694,4.43584 -2.0148,7.82013 -1.3136,13.86144 0.6516,5.61456 0.4343,8.58717 -0.7304,9.99054 -1.1568,1.39395 -1.4078,4.67764 -0.8301,10.86364 0.5733,6.13984 0.3242,9.47111 -0.8102,10.83444 -1.8889,2.27004 -3.6768,20.15602 -3.5292,35.30583 0.056,5.72188 -0.4939,11.12188 -1.2215,12 -1.2876,1.55417 -2.3911,11.84756 -3.6015,33.59657 -1.1038,19.83352 -2.6129,33.32387 -3.9525,35.33333 -1.2432,1.86479 -1.8013,12.18728 -1.8154,33.57715 0,6.01771 -0.7183,9.99783 -2.2004,12.25976 -1.6945,2.58612 -1.9908,4.97997 -1.3003,10.50609 0.6033,4.82875 0.3038,8.6478 -0.9207,11.74026 -1.2092,3.05374 -1.5516,7.25333 -1.026,12.58341 0.5488,5.56632 0.2525,8.80006 -0.9742,10.63001 -0.9697,1.44649 -1.763,5.76109 -1.763,9.58797 0,3.82688 -0.5227,7.28102 -1.1616,7.67584 -0.6388,0.39483 -1.5987,10.48023 -2.133,22.41202 -0.5343,11.93178 -1.5703,22.42634 -2.3022,23.32125 -1.3141,1.60669 -2.2288,12.24777 -2.8402,33.03957 -0.1725,5.86667 -1.0453,12.3573 -1.9397,14.42362 -0.9385,2.16841 -1.2807,5.916 -0.8095,8.86322 0.4766,2.98003 0.075,7.24524 -0.9642,10.24305 -0.9794,2.82523 -1.9334,9.63678 -2.1199,15.13678 -0.8495,25.04442 -1.4611,32.06974 -2.9479,33.86117 -0.8778,1.05776 -1.5591,5.42172 -1.5139,9.69768 0.045,4.27596 -0.5511,14.07448 -1.3253,21.77448 -0.7741,7.7 -1.7283,18.79921 -2.1203,24.66493 -0.3921,5.86571 -1.316,11.39159 -2.0531,12.27974 -0.8243,0.99326 -0.9835,5.4206 -0.4136,11.5025 0.6295,6.71746 0.4538,10.17987 -0.5479,10.79895 -0.85,0.52536 -1.4744,4.86757 -1.4744,10.25356 0,5.13826 -0.6989,10.64818 -1.5531,12.24428 -0.8542,1.59608 -1.7435,8.00664 -1.9763,14.24568 -0.2328,6.23906 -0.5839,15.89766 -0.7803,21.46366 -0.2046,5.8004 -1.0931,11.0105 -2.0815,12.2063 -1.1186,1.3534 -1.6148,5.2931 -1.4122,11.2134 0.1718,5.0199 -0.3036,10.2263 -1.0564,11.5699 -0.8751,1.5617 -0.9579,5.0634 -0.2296,9.7077 0.801,5.10761 0.6604,8.14361 -0.4733,10.22391 -1.5937,2.9242 -3.7026,19.2489 -4.1874,32.4135 -0.3275,8.8963 -1.9102,10.6504 -9.13639,10.1259 -3.1791,-0.2308 -7.8593,-0.4145 -10.4003,-0.4082 -2.5411,0.01 -5.2428,-0.5053 -6.0038,-1.1368 -2.2451,-1.8633 -6.4171,2.1753 -6.4563,6.2496 -0.02,2.0432 0.4433,7.7177 1.0289,12.61 l 1.0648,8.8952 12.8266,13.2339 c 7.0546,7.2786 13.8099,13.7758 15.01179,14.4382 1.2018,0.6623 4.6606,4.2042 7.686,7.8708 3.0255,3.6667 8.4922,10.2369 12.1482,14.6006 3.656,4.3636 6.6473,9.0538 6.6473,10.4227 0,1.3689 3.45,6.0612 7.6666,10.4274 4.2167,4.3662 8.3192,9.876 9.1166,12.244 1.7064,5.0667 13.966,19.2363 20.3349,23.5027 4.5128,3.0231 14.8009,5.682 16.4483,4.2509 0.4949,-0.4299 1.2688,-5.5816 1.7198,-11.4483 z m 880.72735,-11.308 c -1.0717,-2.0025 -2.2854,-2.5072 -4.6199,-1.9213 -2.4479,0.6144 -4.0241,-0.1758 -6.9466,-3.4824 -10.4596,-11.8341 -18.0421,-18.6216 -20.8027,-18.6216 -1.9827,0 -6.5045,-3.7107 -13.6385,-11.192 -6.9109,-7.2473 -12.0686,-11.5118 -14.6336,-12.0993 -2.5444,-0.5828 -7.5512,-4.6894 -14,-11.4829 -7.3131,-7.7042 -10.9394,-10.5734 -13.3554,-10.5674 -2.4362,0.01 -6.1666,-3 -14.0539,-11.3251 -6.5864,-6.9518 -11.7807,-11.3332 -13.4359,-11.3332 -1.6117,0 -7.332,-4.6336 -14.2035,-11.5051 -8.453,-8.453 -12.1092,-11.2733 -13.7823,-10.6313 -1.3981,0.5365 -3.1001,-0.055 -4.4092,-1.5321 -11.9023,-13.431 -13.2142,-14.578 -15.3236,-13.3976 -1.18965,0.6657 -2.90705,0.7506 -3.81645,0.1885 -3.0946,-1.9126 -11.4307,-1.6398 -12.2133,0.3996 -0.543,1.4151 -1.3828,1.5819 -3.1642,0.6285 -1.3544,-0.7248 -3.2244,-0.8036 -4.236,-0.1785 -1.1186,0.6914 -2.5471,0.3833 -3.7361,-0.8057 -1.335,-1.335 -2.4238,-1.511 -3.5526,-0.5742 -1.1074,0.9191 -2.9679,0.8449 -5.8215,-0.2323 -3.6693,-1.385 -4.6769,-1.2259 -8.0549,1.2715 -2.7822,2.0571 -4.2662,2.4493 -5.3116,1.4039 -0.798,-0.798 -5.2273,-1.5073 -9.843,-1.5763 -4.6157,-0.069 -9.1293,-0.603 -10.0303,-1.1866 -0.9739,-0.6308 -3.2067,0.099 -5.5067,1.7992 -3.2155,2.3772 -4.3582,2.5982 -6.7681,1.3085 -1.5947,-0.8535 -4.2166,-1.4239 -5.8266,-1.2676 -1.6099,0.1562 -3.9848,-0.1722 -5.2775,-0.73 -1.3055,-0.5633 -3.1273,-0.3692 -4.0984,0.4367 -1.2637,1.0488 -2.1669,1.0319 -3.2598,-0.061 -1.1268,-1.1268 -2.0519,-1.0635 -3.6328,0.2485 -2.4955,2.0711 -9.9752,2.674 -12.2401,0.9866 -0.9379,-0.6988 -2.6684,-0.5966 -4.2524,0.2512 -1.7678,0.9461 -2.9504,0.9774 -3.4973,0.092 -1.2677,-2.0513 -8.8494,-1.5868 -11.3727,0.6967 -1.999,1.8091 -2.4309,1.8122 -3.9116,0.028 -1.1145,-1.3428 -2.3894,-1.6257 -3.8579,-0.8561 -1.231,0.6451 -5.877,0.6372 -10.5889,-0.018 -6.9196,-0.9622 -8.9828,-0.7827 -11.7352,1.0207 -2.3142,1.5163 -3.7657,1.7619 -4.7276,0.8 -0.7635,-0.7635 -3.6549,-1.0841 -6.4254,-0.7125 -3.079,0.413 -5.4097,0.073 -5.9954,-0.8748 -0.7275,-1.1771 -1.4113,-1.1745 -2.8395,0.011 -1.4428,1.1974 -2.3475,1.1744 -3.8813,-0.098 -1.3402,-1.1123 -2.5499,-1.228 -3.6667,-0.3509 -2.8038,2.2021 -10.5694,3.1482 -12.5242,1.5258 -1.3498,-1.1202 -2.3169,-1.08 -3.8091,0.1584 -1.3869,1.1511 -2.5109,1.2408 -3.6667,0.2929 -2.1609,-1.7723 -9.7972,-1.3623 -11.7927,0.6332 -1.1502,1.1502 -2.1646,1.1653 -3.9368,0.059 -1.7722,-1.1067 -2.8699,-1.0903 -4.2606,0.064 -1.3918,1.1551 -2.2604,1.1677 -3.379,0.049 -0.828,-0.8281 -5.2838,-1.4856 -9.9016,-1.4611 -4.6178,0.025 -9.1058,-0.5239 -9.9734,-1.2186 -1.0359,-0.8294 -2.7374,-0.503 -4.9561,0.9508 -2.4577,1.6103 -4.8073,1.9725 -8.6191,1.3285 -3.3701,-0.5694 -5.5744,-0.345 -6.1762,0.6289 -0.6637,1.0738 -1.6175,0.8974 -3.279,-0.6062 -2.0963,-1.8972 -2.5209,-1.9063 -4.0309,-0.087 -1.8702,2.2534 -10.0761,2.7797 -11.3444,0.7276 -0.5079,-0.8219 -1.8029,-0.6984 -3.4932,0.3333 -2.2293,1.3606 -2.9687,1.2589 -4.3483,-0.5979 -1.0405,-1.4005 -2.3204,-1.8305 -3.422,-1.1497 -0.9678,0.5982 -4.0968,0.7742 -6.9531,0.3911 -3.8221,-0.5127 -5.8831,-0.073 -7.8052,1.667 -2.0953,1.8962 -2.9995,2.0417 -4.5727,0.736 -1.0786,-0.8951 -3.1106,-1.2626 -4.5156,-0.8167 -1.405,0.4459 -4.2315,0.1732 -6.2811,-0.606 -2.4602,-0.9354 -4.1753,-0.9681 -5.047,-0.096 -0.8718,0.8717 -2.1927,0.8537 -3.8871,-0.053 -1.4116,-0.7555 -3.3241,-1.0829 -4.25,-0.7276 -0.9258,0.3552 -2.5153,0.1318 -3.532,-0.4966 -1.1728,-0.7248 -2.6846,-0.386 -4.1353,0.9269 -1.2576,1.1381 -3.0713,1.7888 -4.0304,1.446 -0.9591,-0.3428 -2.7309,-0.117 -3.9372,0.5018 -1.4486,0.7432 -2.7536,0.4501 -3.8435,-0.8632 -1.2542,-1.5112 -2.0879,-1.6253 -3.4734,-0.4754 -1.3701,1.137 -2.3341,1.0889 -3.8796,-0.1937 -1.5577,-1.2928 -2.4309,-1.3324 -3.6,-0.1633 -0.8489,0.8489 -2.8881,1.5435 -4.5315,1.5435 -1.6433,0 -3.3829,0.6391 -3.8657,1.4202 -0.5736,0.9281 -1.7666,0.6157 -3.4435,-0.9019 -1.8051,-1.6335 -2.9842,-1.9035 -3.9771,-0.9106 -0.9929,0.9929 -2.5852,0.9682 -5.3706,-0.083 -3.2456,-1.2251 -4.6967,-1.0712 -8.0509,0.8539 -3.0236,1.7353 -4.5498,1.9683 -5.8461,0.8924 -1.2538,-1.0406 -2.5163,-1.0481 -4.4253,-0.026 -1.8977,1.0156 -2.9263,1.0162 -3.5532,0 -0.4852,-0.7851 -2.9079,-1.253 -5.3836,-1.0397 -2.4758,0.2133 -5.2068,-0.3175 -6.0688,-1.1795 -1.2009,-1.2009 -2.29,-0.9989 -4.6584,0.864 -2.4504,1.9275 -4.6882,2.2995 -10.7966,1.7948 -4.238,-0.3502 -9.2055,-0.732 -11.0388,-0.8484 -1.8334,-0.1164 -4.1212,-0.7113 -5.0841,-1.3219 -1.0913,-0.6921 -2.7265,-0.2271 -4.3415,1.2344 -1.4249,1.2896 -2.966,1.9695 -3.4246,1.5109 -0.4586,-0.4586 -1.8919,-0.2675 -3.1852,0.4246 -1.6627,0.8899 -2.8238,0.6891 -3.9646,-0.6856 -1.1115,-1.3392 -2.318,-1.5668 -3.8786,-0.7317 -1.368,0.7322 -3.0288,0.722 -4.1933,-0.026 -1.84,-1.1813 -8.4429,-0.4806 -11.2542,1.1944 -2.0961,1.2489 -11.428,1.167 -12.2155,-0.1072 -0.3918,-0.634 -2.4047,-0.7809 -4.4733,-0.3266 -2.1244,0.4666 -4.901,0.1142 -6.381,-0.8102 -2.1975,-1.3724 -3.2063,-1.1752 -6.2546,1.2227 -2.7656,2.1754 -4.2251,2.5429 -6.1047,1.5369 -1.3586,-0.7271 -3.1641,-1.1639 -4.0122,-0.9706 -0.8481,0.1932 -2.7408,-1.7429 -4.206,-4.3025 -2.3779,-4.1542 -2.4751,-5.1562 -0.905,-9.3334 1.1678,-3.1072 1.8588,-12.7432 2.0566,-28.6795 0.4807,-38.74441 0.4424,-47.80491 -0.2171,-51.33331 -1.0786,-5.7705 0.3873,-6.3715 12.7055,-5.2088 40.3408,3.8077 47.5148,4.0667 49.4092,1.784 1.0295,-1.2404 2.1492,-1.4966 3.1011,-0.7094 0.8193,0.6776 2.9897,1.1931 4.8231,1.1454 1.8333,-0.048 7.5333,0.3153 12.6666,0.8065 21.0804,2.017 24.2858,2.3092 30.6667,2.7955 3.6667,0.2794 6.6667,0.6034 6.6667,0.7201 0,0.1167 3.2566,0.4247 7.2369,0.6844 4.4609,0.2911 8.6157,-0.2406 10.831,-1.3862 1.9767,-1.0222 3.9543,-1.4982 4.3946,-1.0579 0.8873,0.8873 8.362,1.7305 19.5374,2.204 4.0334,0.1709 8.0888,0.7796 9.012,1.3526 0.9232,0.573 2.9447,0.6401 4.4922,0.1489 1.5475,-0.4912 4.2217,-0.1394 5.9426,0.7816 2.4379,1.3047 3.5546,1.3214 5.0558,0.076 1.3269,-1.1013 2.1985,-1.1593 2.7997,-0.1865 0.4802,0.7769 2.4836,1.4112 4.4521,1.4095 1.9684,-0.001 6.0803,-0.03 9.1375,-0.062 3.0572,-0.032 5.9436,0.564 6.4143,1.3255 0.5872,0.9501 1.712,0.9263 3.5846,-0.076 1.9735,-1.0562 3.1321,-1.0572 4.1857,0 1.8781,1.8781 5.1361,1.8477 9.8367,-0.092 2.0645,-0.8517 4.3473,-1.4038 5.0731,-1.2268 1.9301,0.4707 15.1679,1.5473 21.3471,1.736 2.9333,0.09 6.1087,0.7547 7.0565,1.478 1.1504,0.878 2.2155,0.8228 3.2043,-0.166 1.0523,-1.0523 2.241,-1.0743 4.1063,-0.076 1.4439,0.7728 4.2812,1.0739 6.305,0.6691 2.0239,-0.4048 4.0955,-0.3202 4.6036,0.1879 0.5081,0.5082 3.729,1.0619 7.1574,1.2305 8.2672,0.4066 19.5669,1.4139 19.5669,1.7442 0,1.0091 17.4122,1.0129 18.6278,0 1.4513,-1.2045 7.1579,-1.0402 25.3722,0.7304 4.4,0.4278 9.6703,0.7537 11.7117,0.7244 2.0415,-0.029 5.0916,0.4712 6.778,1.1124 1.7045,0.648 3.8851,0.6596 4.9102,0.026 1.0561,-0.6528 2.5058,-0.5904 3.393,0.1459 0.852,0.707 5.3721,1.5152 10.0447,1.796 4.6726,0.2807 11.4957,0.7918 15.1624,1.1357 3.6666,0.3438 8.8945,-0.1208 11.6174,-1.0327 2.7228,-0.9119 5.2958,-1.3128 5.7177,-0.8909 0.4219,0.4218 2.994,0.8898 5.7159,1.0398 2.722,0.1501 10.649,0.7012 17.6156,1.2247 6.9667,0.5234 14.7667,1.0277 17.3334,1.1205 2.5666,0.093 5.4166,0.6542 6.3333,1.2475 0.9167,0.5932 2.1167,0.8008 2.6667,0.4612 0.55,-0.3397 6.4,-0.092 13,0.5507 6.6,0.6424 15.9,1.4134 20.6666,1.7132 7.1884,0.452 9.2933,1.1561 12.3404,4.128 4.8836,4.763 5.308,3.3025 4.2755,-14.7121 -0.4588,-8.0042 -0.7081,-16.9531 -0.554,-19.8864 0.7417,-14.11708 0.395,-54.46037 -0.6505,-75.69349 -0.9285,-18.85746 -0.8067,-24.366 0.5967,-26.98834 1.4497,-2.70862 1.4726,-7.38898 0.1291,-26.3065 -0.8989,-12.65642 -1.5944,-31.41167 -1.5455,-41.67834 0.049,-10.26666 0.1246,-26.16666 0.1683,-35.33333 0.044,-9.16666 -0.5174,-31.03432 -1.2471,-48.59478 -0.8529,-20.52359 -0.8675,-32.78638 -0.041,-34.33091 0.8311,-1.55301 0.7296,-15.72485 -0.2872,-40.07188 -0.8652,-20.718 -1.4466,-39.91909 -1.2919,-42.66909 0.7845,-13.95009 0.6539,-53.59332 -0.2064,-62.6332 -0.8693,-9.13487 -0.695,-10.56759 1.5411,-12.66667 3.6505,-3.42692 4.0355,-7.4836 0.7724,-8.13937 -1.4667,-0.29475 -3.1075,-1.21651 -3.6462,-2.04833 -1.6395,-2.53118 -1.0432,-11.97409 0.9795,-15.51243 1.0481,-1.83333 1.936,-5.43333 1.9732,-8 0.089,-6.1599 1.9683,-9.25853 4.238,-6.98885 2.4352,2.4352 6.9675,2.01871 10.795,-0.992 2.96,-2.32833 3.5656,-2.40672 5.0234,-0.65023 1.2171,1.46658 2.1194,1.61406 3.3955,0.555 1.2506,-1.03792 2.5442,-1.01073 4.61395,0.0969 1.5819,0.84657 4.3478,1.16985 6.1466,0.7184 1.7987,-0.45147 3.9928,-0.3719 4.8758,0.17681 0.8829,0.54872 5.689,1.10073 10.6802,1.22672 4.9911,0.126 9.4172,0.57145 9.8357,0.98996 0.4185,0.41849 2.5389,-0.15859 4.7122,-1.2824 2.1732,-1.12381 4.9471,-1.64301 6.1643,-1.15379 3.4726,1.39583 14.0542,1.67271 15.7027,0.41087 0.8927,-0.68327 2.1282,-0.37109 3.0826,0.77891 1.0439,1.2578 3.063,1.68062 5.859,1.22689 6.8017,-1.10375 9.3701,2.74117 8.3282,12.46699 -0.4569,4.26421 -1.2951,13.75311 -1.8629,21.08645 -0.5677,7.33333 -1.7423,14.99765 -2.6102,17.03182 -1.1755,2.75524 -1.2099,5.41498 -0.1346,10.42875 0.7938,3.70164 1.0382,9.23732 0.543,12.30151 -0.4952,3.06418 -1.17,11.27125 -1.4996,18.23792 -0.3296,6.96666 -1.2732,13.99513 -2.097,15.61881 -0.954,1.88055 -1.1964,6.51584 -0.6678,12.76979 0.4577,5.4142 0.2825,10.36944 -0.3907,11.04786 -1.3922,1.40323 -2.8452,28.90693 -2.6584,50.32215 0.069,7.9339 -0.4719,15.14557 -1.2025,16.02593 -1.24,1.49401 -1.7328,7.95407 -3.4749,45.54879 -0.3738,8.06666 -1.0716,21.86666 -1.5506,30.66666 -0.479,8.8 -0.954,22.9 -1.0556,31.33333 -0.111,9.22035 -0.8318,16.4944 -1.8079,18.24568 -0.9573,1.71764 -1.6232,8.11215 -1.6232,15.58798 0,7.83396 -0.5641,13.02429 -1.477,13.58845 -0.9476,0.58569 -1.1482,2.88352 -0.5597,6.41201 2.1591,12.94555 2.1865,19.34198 0.1001,23.37664 -1.6015,3.0969 -1.8895,6.19363 -1.2331,13.25652 0.6658,7.16398 0.371,10.18886 -1.3241,13.58687 -1.9044,3.81749 -1.986,5.88884 -0.6441,16.35285 1.2586,9.81341 1.2085,12.48941 -0.2765,14.78735 -1.7614,2.72556 -2.3071,10.84536 -2.9802,44.34476 -0.1496,7.4464 -0.7221,13.9964 -1.2721,14.5555 -0.55,0.5591 -1,6.7239 -1,13.6996 0,6.9757 -0.6877,14.5852 -1.5284,16.9098 -2.3543,6.5108 -0.5411,10.5193 10.2394,22.63621 5.4879,6.1683 9.9557,12.4128 9.9557,13.915 0,1.5651 4.1059,7.013 9.646,12.7987 5.3052,5.5405 10.6625,12.5949 11.9049,15.6765 1.2425,3.0816 6.5018,10.0603 11.6874,15.5082 6.0543,6.3605 9.4284,10.998 9.4284,12.9588 0,1.9515 3.1519,6.3166 8.733,12.0947 4.8032,4.9726 10.453,12.3411 12.5551,16.3745 2.1021,4.0333 6.8723,10.3107 10.6003,13.9498 4.3169,4.214 6.7782,7.7449 6.7782,9.7238 0,3.0796 6.7215,11.2991 18.3334,22.4193 5.4883,5.256 7.017,8.9151 4.4002,10.5324 -0.6965,0.4305 -1.9205,-0.4395 -2.72,-1.9333 z M 310.70345,1046.7816 c -1.1724,-1.4127 -2.3311,-1.624 -4.0016,-0.73 -1.2932,0.6921 -2.7305,0.8792 -3.194,0.4158 -0.4634,-0.4635 -2.1923,-0.9924 -3.8419,-1.1754 -1.6497,-0.1829 -3.3544,-0.3826 -3.7883,-0.4438 -3.1009,-0.4367 -5.448,-26.9832 -2.5444,-28.7777 0.7489,-0.4629 1.3333,-6.8287 1.3333,-14.5232 0,-7.53451 0.45,-14.15271 1,-14.70711 0.55,-0.5544 1.0917,-7.4044 1.2038,-15.2222 0.112,-7.8178 0.712,-19.0142 1.3333,-24.8809 l 1.1296,-10.6667 5.0638,0.4449 c 3.101,0.2725 6.3457,-0.395 8.371,-1.7221 1.8189,-1.1918 4.0286,-1.7211 4.9104,-1.1761 0.8817,0.545 5.2512,1.0643 9.7099,1.1541 4.4588,0.09 8.7603,0.5671 9.5589,1.0607 0.7987,0.4936 2.8622,0.872 4.5857,0.8408 4.2091,-0.076 23.1336,1.0526 23.1336,1.3796 0,0.1427 3.8325,0.5282 8.5166,0.8566 4.6841,0.3285 9.5165,1.1323 10.7385,1.7863 1.2518,0.67 3.0324,0.6883 4.0783,0.042 1.0559,-0.6526 2.8555,-0.6125 4.1738,0.093 3.5639,1.9074 8.0198,1.4784 10.8026,-1.04 2.1737,-1.9671 2.6888,-2.0129 3.7512,-0.3333 0.6773,1.0708 1.2765,4.647 1.3314,7.947 0.055,3.3 0.6,9 1.2113,12.6666 0.815,4.8885 0.5998,7.9046 -0.8066,11.3077 -1.5217,3.6819 -1.7541,9.0547 -1.1245,26 0.4366,11.74751 1.3915,26.34921 2.1221,32.44831 1.6658,13.9059 1.1735,15.616 -4.4458,15.4454 -2.3919,-0.073 -4.6489,-0.2661 -5.0155,-0.4298 -0.3667,-0.1638 -4.2667,-0.5046 -8.6667,-0.7574 -5.7824,-0.3322 -8.6235,0.1004 -10.2493,1.5604 -1.2372,1.1111 -2.9392,1.5937 -3.7824,1.0726 -0.8432,-0.5211 -5.2964,-1.0922 -9.8961,-1.2692 -4.5997,-0.1769 -9.0839,-0.7671 -9.9648,-1.3115 -0.8809,-0.5445 -3.3754,-0.2552 -5.5432,0.6427 -2.1679,0.898 -5.9332,1.3095 -8.3673,0.9145 -2.4342,-0.395 -5.2606,-0.2023 -6.2809,0.4283 -1.1763,0.727 -2.6716,0.4076 -4.0865,-0.8729 -1.5495,-1.4022 -2.5099,-1.5688 -3.1427,-0.545 -0.5012,0.811 -2.0895,1.1005 -3.5297,0.6434 -1.4401,-0.4571 -3.482,-0.1144 -4.5374,0.7616 -1.0555,0.876 -2.9028,1.2152 -4.1051,0.7538 -1.2022,-0.4613 -2.9303,-0.2211 -3.84,0.534 -1.1678,0.9692 -2.1393,0.7882 -3.3044,-0.6157 z m 589.845,-144.60709 c -0.3095,-0.30943 -2.8095,-0.71504 -5.5556,-0.90138 -2.7461,-0.18633 -7.9726,-0.64902 -11.6144,-1.0282 -3.6418,-0.37918 -7.2836,-0.1399 -8.0929,0.53174 -1.5074,1.25105 -16.3312,1.43892 -18.4782,0.23418 -0.656,-0.36805 -5.156,-0.8146 -10,-0.99233 -4.8441,-0.17772 -8.8075,-0.44805 -8.8075,-0.60072 0,-0.92348 -11.6254,-0.62015 -12.2054,0.31845 -0.3903,0.63151 -7.1038,0.71474 -14.9188,0.18496 -7.815,-0.52978 -16.0091,-1.02709 -18.2091,-1.10512 -2.2,-0.078 -4.6,-0.46828 -5.3333,-0.86721 -2.1739,-1.18259 -9.7303,-0.42879 -11.6469,1.16184 -1.0892,0.90392 -2.5147,1.01724 -3.6865,0.29304 -1.153,-0.7126 -2.5659,-0.63685 -3.5635,0.19105 -0.9351,0.77604 -2.4022,0.8877 -3.3781,0.25707 -0.9487,-0.61313 -3.825,-1.22693 -6.3917,-1.364 -7.9155,-0.42273 -20.446,-1.71273 -25.0746,-2.58141 -3.4246,-0.64272 -5.0904,-0.18622 -7.4666,2.04608 -2.6937,2.53058 -3.2582,2.63281 -4.732,0.85697 -1.1617,-1.3998 -2.3661,-1.64569 -3.9386,-0.80411 -1.3657,0.73091 -3.0308,0.72347 -4.1934,-0.0187 -1.0605,-0.67707 -3.7281,-1.22918 -5.9281,-1.22692 -2.2,0.003 -5.05,-10e-4 -6.3334,-0.009 -1.2833,-0.008 -3.0833,-0.0141 -4,-0.0152 -0.9166,-9.7e-4 -3.9434,-0.36974 -6.7261,-0.81948 -3.6744,-0.59385 -5.7116,-0.22756 -7.4415,1.33802 -1.3102,1.18565 -2.7867,1.75108 -3.2813,1.25653 -0.4945,-0.49456 -4.0459,-1.10345 -7.8918,-1.35311 -11.1363,-0.72288 -20.3259,-1.52226 -20.3259,-1.76812 0,-0.12466 -3.8276,-0.49517 -8.5058,-0.82329 -6.4272,-0.45077 -9.0604,-0.0948 -10.7749,1.45691 -1.248,1.12941 -2.7053,1.61718 -3.2386,1.08393 -0.5332,-0.53324 -4.6845,-1.06831 -9.2251,-1.18901 -4.5406,-0.12067 -9.3056,-0.64994 -10.5889,-1.17603 -1.2834,-0.52611 -3.2875,-0.5904 -4.4537,-0.14289 -1.1662,0.44749 -2.8162,0.38041 -3.6667,-0.14908 -0.8505,-0.52951 -3.6463,-1.06616 -6.213,-1.19259 -2.5666,-0.1264 -7.0666,-0.46783 -10,-0.75867 -3.0269,-0.30012 -7.015,0.3039 -9.2221,1.39674 -2.9067,1.43925 -4.7985,1.58214 -7.4911,0.56581 -2.0628,-0.77861 -4.4684,-0.87503 -5.6289,-0.22563 -1.3142,0.73548 -2.5967,0.44699 -3.6489,-0.82073 -1.1485,-1.38396 -2.309,-1.58733 -3.9737,-0.69643 -1.2932,0.69212 -2.7389,0.87083 -3.2126,0.39714 -0.4737,-0.4737 -4.0026,-1.27328 -7.842,-1.77684 -5.5343,-0.72587 -7.6713,-0.43395 -10.314,1.40889 -2.4334,1.69691 -4.1821,2.00653 -6.4771,1.14685 -1.7291,-0.64768 -4.7463,-1.05549 -6.7049,-0.90625 -1.9585,0.14924 -4.1725,-0.10653 -4.9198,-0.56847 -0.7474,-0.46189 -2.2241,-0.30502 -3.2817,0.34858 -1.3472,0.83261 -3.0272,0.1304 -5.6118,-2.34586 -2.8579,-2.73799 -4.0474,-3.17574 -5.2802,-1.94302 -0.8751,0.87517 -2.701,1.59121 -4.0574,1.59121 -1.3564,0 -4.254,0.92452 -6.4392,2.05449 -2.1851,1.12996 -4.6936,1.60903 -5.5746,1.06459 -0.8809,-0.54444 -5.3599,-1.06559 -9.9533,-1.15809 -4.5934,-0.0925 -8.755,-0.57158 -9.2481,-1.06459 -0.493,-0.493 -2.2264,-0.89637 -3.852,-0.89637 -3.8106,0 -4.7772,-3.70468 -2.4256,-9.29735 1.0041,-2.38818 1.8257,-7.8814 1.8257,-12.20716 0,-4.32576 0.7212,-9.01984 1.6027,-10.4313 1.2664,-2.02796 1.2206,-3.28007 -0.2184,-5.96895 -1.5857,-2.96287 -1.5343,-3.71949 0.3973,-5.85395 2.9635,-3.27461 2.7958,-5.45477 -0.7063,-9.18258 -2.6103,-2.77856 -2.7534,-3.58678 -1.3313,-7.5195 1.0685,-2.95496 1.3083,-8.42218 0.7279,-16.59854 -0.7043,-9.92198 -0.429,-13.33514 1.4786,-18.33003 1.5538,-4.0686 2.031,-7.56597 1.4154,-10.37421 -0.5108,-2.33004 -1.4183,-12.93643 -2.0166,-23.56976 -0.9147,-16.25581 -0.7601,-20.03584 0.9712,-23.74655 1.7996,-3.85704 1.8629,-7.09477 0.5021,-25.69094 -1.1537,-15.76518 -1.1692,-22.00254 -0.06,-24.07535 1.4519,-2.71296 1.6782,-16.82747 1.1468,-71.51404 -0.1364,-14.03748 0.3415,-23.02697 1.3542,-25.47181 1.1608,-2.80256 1.229,-8.56308 0.2637,-22.30647 -1.0772,-15.33825 -0.9764,-19.0366 0.5857,-21.48126 2.1449,-3.35704 2.4144,-18.63698 0.6292,-35.68166 -0.6795,-6.48814 -0.6127,-11.94689 0.1715,-14 1.33,-3.48242 1.5663,-46.56257 0.2738,-49.93069 -0.4263,-1.11092 0.6543,-2.80986 2.5968,-4.0826 2.7813,-1.82238 3.7769,-1.8988 6.0713,-0.46596 2.0828,1.30076 3.1174,1.34086 4.2919,0.16634 1.1745,-1.17454 2.011,-1.08414 3.4702,0.37502 1.2905,1.29051 2.6276,1.52804 4.067,0.72251 1.3243,-0.74115 3.3586,-0.64685 5.3195,0.24659 2.5116,1.14436 4.1078,0.94437 7.6385,-0.95707 2.7395,-1.47529 5.151,-1.96975 6.2436,-1.28016 0.9791,0.61797 5.6802,1.22075 10.4469,1.33952 4.7666,0.1188 8.6666,0.34589 8.6666,0.50473 0,0.15884 4.1764,0.52946 9.2809,0.82356 5.1045,0.29412 9.8589,1.11278 10.5654,1.81922 0.8237,0.8237 2.8664,0.3067 5.6948,-1.44128 2.5695,-1.58808 5.1157,-2.28976 6.1005,-1.68115 0.9296,0.57452 3.3029,0.87543 5.2739,0.66867 1.9711,-0.20675 4.7295,0.23728 6.1299,0.98672 1.7741,0.94949 2.9952,0.91357 4.0272,-0.1184 1.0499,-1.04995 1.9827,-1.06844 3.2043,-0.0635 0.9477,0.77967 4.0131,1.41424 6.812,1.41016 2.7989,-0.004 5.4278,0.33147 5.842,0.74567 0.4142,0.4142 1.8112,0.1868 3.1044,-0.50532 1.6505,-0.88328 2.8158,-0.69886 3.9093,0.61873 1.3237,1.59495 2.2585,1.46373 6.2187,-0.87284 3.9009,-2.30159 5.2158,-2.49709 8.0647,-1.19908 2.5961,1.18289 3.8529,1.17821 5.2963,-0.0197 1.4938,-1.23975 2.2745,-1.048 3.7064,0.91026 1.5398,2.10572 2.1383,2.21175 3.9584,0.70126 1.719,-1.42668 2.5416,-1.44988 4.1476,-0.11707 1.1485,0.95319 3.6257,1.33812 5.8055,0.90215 2.1448,-0.42896 4.4827,-0.08 5.3633,0.80061 1.1926,1.19252 2.1559,1.18956 4.0808,-0.012 2.0076,-1.25379 2.8526,-1.17243 4.1579,0.40036 1.4028,1.69027 1.946,1.70743 3.7803,0.11933 3.2048,-2.77452 9.4354,-3.90586 11.6031,-2.10686 1.4313,1.18793 2.3436,1.163 3.8724,-0.10587 1.343,-1.11459 2.5475,-1.22872 3.6667,-0.34745 2.5415,2.00125 14.4817,3.21749 16.3516,1.6656 1.1338,-0.94096 2.127,-0.74966 3.2723,0.63029 1.4275,1.72003 2.1229,1.73384 5.2732,0.1048 3.7239,-1.92568 15.5531,-2.04107 18.5627,-0.18108 0.9113,0.56327 2.4511,0.36507 3.4217,-0.44044 1.3051,-1.08316 2.1682,-0.97832 3.3143,0.40259 1.1221,1.35205 2.8153,1.58169 6.1375,0.8324 3.3223,-0.7493 5.0155,-0.51966 6.1376,0.8324 1.1731,1.41356 1.9925,1.49958 3.3727,0.35412 1.3688,-1.13603 2.3276,-1.09428 3.8481,0.16757 1.6508,1.37009 2.4709,1.27709 4.4383,-0.50341 2.6561,-2.40378 10.233,-2.96 11.5389,-0.84708 0.5469,0.88486 1.7294,0.85357 3.4972,-0.0925 1.9175,-1.02617 3.1752,-1.011 4.4582,0.0539 0.983,0.81579 3.2888,1.10641 5.124,0.64581 1.8351,-0.4606 4.5006,-0.21452 5.9232,0.54684 1.8208,0.97444 3.0252,0.94579 4.0677,-0.0968 1.0197,-1.0197 2.0179,-1.05553 3.2043,-0.11506 0.9477,0.75134 4.7941,1.75609 8.5475,2.23278 5.6112,0.71263 7.3889,0.40763 10,-1.71564 2.8878,-2.34829 3.3849,-2.39409 5.484,-0.50528 1.8082,1.62704 2.7213,1.7343 4.2146,0.49498 1.4368,-1.1924 2.141,-1.20235 2.8591,-0.0404 0.5991,0.96924 2.7949,1.24716 5.9136,0.74845 2.7284,-0.43628 5.3526,-0.40136 5.8315,0.0776 0.479,0.47897 4.5725,1.07268 9.0968,1.31937 6.3476,0.3461 8.8021,-0.0729 10.7491,-1.83488 2.1751,-1.96845 2.6902,-2.01485 3.7343,-0.33642 0.9661,1.55284 1.7247,1.62893 3.7475,0.37588 1.8983,-1.17591 2.9186,-1.18882 4.0561,-0.0513 0.8358,0.83588 3.8509,1.35147 6.7001,1.14576 3.905,-0.28196 5.8392,0.33327 7.857,2.49904 2.5676,2.75599 2.8178,2.7806 6.14,0.60379 1.9048,-1.24811 4.6402,-1.96152 6.0786,-1.58536 1.4384,0.37615 3.306,-0.14835 4.1502,-1.16556 0.9085,-1.09468 2.7737,-1.53856 4.5703,-1.08765 1.6694,0.419 3.4541,0.0841 3.9661,-0.7443 0.6768,-1.09502 1.5002,-1.03353 3.0167,0.2253 1.148,0.953 5.7125,1.79761 10.1526,1.87868 7.3488,0.13414 8.1651,0.44249 9.1725,3.46469 0.6915,2.07423 0.4962,4.7672 -0.5211,7.18607 -1.9747,4.69561 -2.5791,31.2041 -0.7647,33.5353 0.9647,1.23941 0.4009,1.66667 -2.1993,1.66667 -4.6169,0 -4.705,4.18929 -0.1633,7.76178 3.416,2.68702 4.4334,7.40099 1.9311,8.94748 -1.5387,0.95098 -1.9707,19.67498 -1.4515,62.91736 0.1972,16.42188 -0.2077,27.95306 -1.036,29.50062 -0.8977,1.67744 -0.9792,9.73191 -0.24,23.7067 0.9387,17.74451 0.7971,21.80032 -0.8758,25.08973 -1.7405,3.42242 -1.7761,6.50759 -0.279,24.14956 1.4588,17.19102 1.4339,20.9335 -0.1662,24.9417 -1.4974,3.75082 -1.6886,9.0406 -0.9347,25.85044 0.6329,14.10973 0.466,22.64077 -0.502,25.66591 -0.9262,2.89426 -1.1493,10.50695 -0.6175,21.07183 0.6489,12.89227 0.4189,17.3404 -1.0428,20.16692 -1.5077,2.9156 -1.6198,5.95084 -0.5722,15.48555 0.7168,6.52253 0.9326,17.00833 0.4796,23.30178 -1.3198,18.33498 -1.4417,39.79214 -0.3037,53.44263 l 1.056,12.66666 h -4.8337 c -2.6586,0 -5.087,-0.25316 -5.3964,-0.56258 z m -516.8336,-11.50023 c -0.6729,-0.67296 -9.1773,-1.52329 -25.7149,-2.57118 -2.9334,-0.18587 -5.3334,-0.48186 -5.3334,-0.65775 0,-0.85768 -10.8402,-0.90804 -12,-0.0557 -2.7977,2.05592 -8.9591,2.76466 -10.7942,1.24165 -1.4314,-1.18793 -2.3436,-1.163 -3.8724,0.10587 -1.3486,1.11919 -2.5429,1.23015 -3.6667,0.34066 -2.6643,-2.10881 -15.3186,-3.31588 -16.401,-1.56444 -2.8071,4.54191 -4.6512,-13.62512 -2.0718,-20.40953 0.6871,-1.80721 0.7166,-7.87493 0.07,-14.29396 -0.902,-8.94828 -0.7427,-11.69872 0.8061,-13.90991 1.3751,-1.96318 1.9305,-6.62209 1.9305,-16.19284 0,-7.4032 0.614,-14.05065 1.3674,-14.80405 0.9182,-0.91821 0.9553,-5.05072 0.113,-12.57985 -0.9925,-8.87072 -0.8604,-12.1557 0.6325,-15.72876 1.0379,-2.48398 1.8871,-8.3825 1.8871,-13.10782 0,-4.72532 0.6408,-9.78889 1.4241,-11.2524 1.0049,-1.8777 1.0143,-6.73213 0.032,-16.49273 -1.1624,-11.5494 -1.0626,-14.6205 0.6049,-18.6113 1.5004,-3.59096 1.7814,-7.36434 1.1301,-15.1741 -0.6487,-7.77858 -0.3894,-11.306 1.0306,-14.01604 1.5075,-2.87713 1.6541,-5.99484 0.7134,-15.16905 -0.9639,-9.40127 -0.8062,-12.33992 0.8487,-15.81036 1.5152,-3.17728 1.8414,-6.79329 1.2812,-14.20063 -0.56,-7.4046 -0.1753,-11.6729 1.5091,-16.74426 1.7664,-5.31818 1.9293,-7.42571 0.7448,-9.6389 -0.9847,-1.83993 -1.2362,-6.65346 -0.7177,-13.73613 0.439,-5.99697 1.1201,-17.5036 1.5136,-25.57026 0.3934,-8.06667 1.2645,-15.2226 1.9357,-15.90208 0.6842,-0.69267 0.8521,-6.4225 0.3823,-13.04232 -0.5491,-7.73442 -0.3198,-12.82707 0.6646,-14.76459 1.6653,-3.27781 2.8915,-23.37481 2.7541,-45.13879 -0.056,-8.8843 0.453,-14.51635 1.3628,-15.07867 0.891,-0.55067 1.4524,-6.0545 1.4524,-14.2399 0,-7.33826 0.5517,-14.37313 1.2259,-15.63305 0.6901,-1.28935 0.8122,-7.10629 0.2794,-13.30647 -0.6931,-8.0653 -0.4648,-12.16002 0.8527,-15.28824 1.16,-2.75434 1.6886,-8.53664 1.4878,-16.27256 -0.1735,-6.68114 0.3256,-13.18429 1.126,-14.6719 0.9299,-1.7285 1.1135,-6.83806 0.52,-14.47123 -0.6697,-8.61232 -0.4663,-12.39231 0.7529,-13.99476 3.9299,-5.16505 2.1615,-10.00443 -7.6717,-20.99357 -5.1848,-5.79436 -10.6087,-13.19063 -12.053,-16.43616 -1.4444,-3.24552 -6.8022,-10.29733 -11.9064,-15.67068 -5.8022,-6.1082 -9.2847,-10.89257 -9.292,-12.76571 -0.01,-1.89598 -3.1829,-6.17801 -8.6486,-11.66265 -5.0254,-5.04275 -10.0446,-11.67503 -12.0036,-15.86123 -1.8768,-4.01069 -7.4903,-11.53562 -12.6847,-17.00402 -5.9452,-6.25867 -9.3181,-10.91042 -9.3181,-12.85098 0,-1.9164 -2.6868,-5.69494 -7.2631,-10.21442 -3.9947,-3.94508 -8.4909,-10.02708 -9.9916,-13.51554 -1.6699,-3.88166 -6.8705,-10.59177 -13.4036,-17.29375 -7.3788,-7.56972 -10.6749,-11.94612 -10.6749,-14.17348 v -3.22232 l 4.4591,3.40118 c 2.4526,1.87066 5.3339,3.40119 6.4029,3.40119 1.069,0 6.9659,5.12017 13.1042,11.37816 6.9332,7.06835 12.0371,11.23493 13.4746,11 1.4354,-0.23457 6.3928,3.79865 13.0557,10.62184 7.4585,7.6379 11.7036,11 13.8892,11 2.2453,0 6.1633,3.27753 13.668,11.43389 8.4296,9.16157 11.1231,11.31868 13.5532,10.85413 2.4272,-0.46398 5.2319,1.77127 14.0462,11.19408 8.2912,8.86358 11.6248,11.58543 13.4866,11.01164 1.8521,-0.57076 5.2261,2.11762 13.4359,10.70538 6.2334,6.5204 12.0689,11.48008 13.5269,11.4966 1.4103,0.016 6.3072,3.61597 10.882,8 7.5475,7.23278 10.5956,8.77085 16.0004,8.07393 0.9083,-0.11707 2.7129,0.35507 4.0101,1.04932 1.725,0.92319 3.2287,0.55773 5.5975,-1.36039 2.1585,-1.74782 4.3081,-2.3543 6.4444,-1.81813 1.763,0.44249 6.8946,1.13279 11.4035,1.53397 4.5089,0.40119 8.7214,1.05294 9.3612,1.44832 0.6397,0.3954 1.5666,0.066 2.0598,-0.73189 0.7788,-1.26019 5.5049,-1.81255 13.8052,-1.61348 1.2834,0.0308 3.0834,0.0568 4,0.0577 0.9167,9.8e-4 3.8,0.353 6.4075,0.78228 3.4064,0.56083 5.2284,0.19292 6.4733,-1.30709 1.3086,-1.5768 2.3575,-1.75312 4.2868,-0.72061 1.4048,0.75182 3.092,1.03461 3.7492,0.62838 0.6573,-0.40621 5.2191,-0.16872 10.1373,0.52779 7.0709,1.00137 9.5383,0.87575 11.791,-0.60032 2.2164,-1.45224 4.7212,-1.60204 11.2818,-0.67472 4.638,0.65559 9.2895,0.86323 10.3366,0.46141 1.0471,-0.40181 2.7166,-0.056 3.7099,0.76839 1.3631,1.13128 2.2082,1.01444 3.4455,-0.4764 1.2066,-1.45384 3.8398,-1.86408 9.974,-1.55391 4.584,0.2318 8.8759,0.70384 9.5375,1.04902 1.9969,1.04177 9.6222,0.30476 11.4718,-1.10882 0.9521,-0.72766 4.1311,-1.08448 7.0645,-0.79292 2.9333,0.29156 7.8334,0.63938 10.889,0.77292 3.0556,0.13356 5.9976,0.68488 6.5378,1.22516 0.5403,0.54028 2.9427,-0.2293 5.3388,-1.71017 2.9646,-1.8322 4.6463,-2.22364 5.2635,-1.22511 0.4988,0.80707 2.8049,1.30387 5.1247,1.104 2.3199,-0.19986 4.9317,0.0777 5.8041,0.61691 0.8723,0.53916 3.0483,0.61332 4.8353,0.1648 1.7871,-0.44852 3.6459,-0.17355 4.1308,0.61105 0.5959,0.96414 1.9041,0.75664 4.0358,-0.64012 2.5183,-1.65002 5.5282,-1.90314 14.9305,-1.25554 6.477,0.44612 13.0617,1.13161 14.6327,1.52333 1.5711,0.39171 4.645,-0.21271 6.831,-1.34313 2.186,-1.13043 4.3231,-1.70675 4.7492,-1.2807 0.426,0.42604 4.1923,1.01202 8.3695,1.30216 5.4058,0.37548 8.5235,-0.0809 10.817,-1.58368 2.2222,-1.45604 3.7244,-1.69434 4.8406,-0.76792 1.8776,1.55827 14.3776,2.37534 16.4781,1.07711 0.7825,-0.48361 2.1538,10e-4 3.0472,1.07801 1.2424,1.49708 2.2515,1.62167 4.2916,0.52987 1.4669,-0.78508 8.1539,-1.36421 14.86,-1.28695 6.706,0.0773 14.1901,0.12894 16.6312,0.11467 2.4411,-0.0141 5.4226,0.52495 6.6254,1.19813 1.4316,0.80114 3.3703,0.6121 5.6122,-0.54721 2.4918,-1.28857 5.7727,-1.49235 12.0412,-0.74788 6.5508,0.77801 9.3088,0.57192 11.5059,-0.85976 1.8125,-1.18112 4.5461,-1.59241 7.3333,-1.10335 8.3148,1.45899 22.4331,1.81143 23.1948,0.579 0.603,-0.97566 16.5007,-0.83089 19.2488,0.1753 1.7962,0.65768 8.8563,-0.44859 10.2693,-1.60915 0.8815,-0.72396 2.6815,-0.9848 4,-0.57964 1.3186,0.40516 7.1311,1.03012 12.9167,1.38879 7.7616,0.48117 11.2237,0.15878 13.2061,-1.22975 1.9952,-1.39747 3.3621,-1.52048 5.3102,-0.47788 1.4429,0.7722 4.3269,1.06332 6.4089,0.64692 2.0819,-0.4164 4.0721,-0.2932 4.4225,0.27376 0.8995,1.45553 10.0955,0.88859 14.4663,-0.89188 2.5297,-1.03051 4.7548,-1.07992 7.1761,-0.15935 1.9302,0.73386 4.6248,0.98028 5.988,0.5476 1.3633,-0.43268 3.2337,-0.32006 4.1565,0.25026 1.8411,1.13786 8.898,0.71294 11.0127,-0.66312 0.7333,-0.47719 3.6429,-0.90572 6.4658,-0.9523 6.6822,-0.11026 9.5782,3.77774 8.2487,11.07426 -1.8983,10.41788 -2.2138,23.28745 -0.8939,36.46178 1.1624,11.60307 1.0559,14.23039 -0.716,17.65685 -1.6835,3.25566 -1.9046,6.52215 -1.156,17.08111 0.5091,7.18061 0.5385,14.27537 0.065,15.76613 -0.9214,2.90294 -6.5083,3.81332 -8.0539,1.31239 -0.5883,-0.9518 -1.4791,-0.88765 -2.7909,0.20099 -1.5044,1.24856 -2.6469,1.2136 -5.2126,-0.1595 -1.8072,-0.9672 -3.6319,-1.41248 -4.0549,-0.9895 -0.423,0.42297 -2.6005,0.24378 -4.839,-0.3982 -2.4721,-0.70899 -5.022,-0.6577 -6.4951,0.13066 -1.8284,0.97856 -2.739,0.73711 -3.7006,-0.98124 -1.0758,-1.92224 -1.6089,-2.00245 -3.4046,-0.51222 -1.6682,1.38449 -2.5474,1.41973 -4.0619,0.16282 -1.063,-0.88228 -3.6134,-1.42785 -5.6674,-1.21238 -2.0541,0.21545 -4.504,-0.0837 -5.4444,-0.66495 -1.0009,-0.61863 -3.5413,0.024 -6.1278,1.55003 -3.226,1.90341 -5.0486,2.25386 -6.755,1.29892 -1.2853,-0.7193 -3.9899,-0.9772 -6.0102,-0.57314 -2.0204,0.40407 -4.3609,0.0472 -5.2012,-0.7931 -1.1481,-1.14815 -1.9208,-1.13472 -3.1096,0.054 -1.2201,1.22016 -2.1289,1.08665 -3.975,-0.58403 -1.8996,-1.71913 -2.7932,-1.83379 -4.3329,-0.55593 -1.4091,1.16945 -2.6628,1.22294 -4.5826,0.19552 -1.4535,-0.7779 -4.4055,-1.0618 -6.56,-0.6309 -2.9452,0.58904 -4.1342,0.21808 -4.7916,-1.49501 -0.6453,-1.68163 -1.3227,-1.90631 -2.5862,-0.85772 -1.1041,0.91631 -4.5305,1.06399 -9.6509,0.41593 -8.6983,-1.10088 -16.1643,-1.04373 -19.2723,0.14751 -4.0213,1.54125 -9.4166,1.92681 -10.1588,0.72595 -0.4189,-0.67791 -2.4475,-0.86231 -4.5079,-0.40978 -2.0603,0.45254 -4.0603,0.31438 -4.4444,-0.30701 -0.384,-0.62139 -4.6411,-1.06656 -9.4602,-0.98927 -4.8191,0.0773 -8.762,-0.39709 -8.762,-1.0542 0,-0.6571 -1.7429,-0.81193 -3.8731,-0.34406 -2.1682,0.47622 -4.2451,0.24862 -4.7184,-0.51706 -0.4649,-0.75224 -2.5487,-1.02704 -4.6307,-0.61064 -2.0819,0.4164 -4.9668,0.1248 -6.4107,-0.64793 -1.8653,-0.99829 -3.054,-0.97627 -4.1064,0.0761 -1.0858,1.0859 -2.0252,1.02944 -3.5206,-0.21157 -1.1217,-0.93096 -2.7971,-1.41044 -3.7232,-1.06551 -0.926,0.34494 -5.5661,0.16184 -10.3113,-0.40686 -5.607,-0.67199 -9.5738,-0.52767 -11.33,0.4122 -4.1343,2.21261 -15.7621,2.02472 -17.5647,-0.28382 -1.2762,-1.63449 -1.869,-1.66198 -3.6666,-0.17008 -1.6458,1.36584 -2.5797,1.4183 -4.0168,0.2256 -1.0362,-0.85996 -3.3627,-1.17998 -5.2091,-0.71656 -1.8352,0.4606 -4.4581,0.23731 -5.8287,-0.4962 -1.5203,-0.81364 -3.3302,-0.86453 -4.6418,-0.13053 -1.4683,0.82173 -2.6759,0.56933 -3.8091,-0.79616 -1.2828,-1.54563 -2.0833,-1.64741 -3.5279,-0.44855 -1.4256,1.18318 -2.6102,1.15383 -4.9975,-0.12386 -1.7271,-0.92431 -4.4236,-1.2637 -6.0185,-0.7575 -1.6457,0.52231 -3.723,0.22543 -4.8256,-0.68965 -1.5132,-1.25585 -2.3728,-1.24427 -3.936,0.0531 -1.509,1.25238 -2.4511,1.28546 -3.8376,0.13476 -1.0107,-0.8388 -5.8568,-1.6442 -10.7692,-1.78978 -4.9123,-0.14557 -9.2167,-0.72608 -9.5652,-1.29001 -0.3486,-0.56393 -1.973,-0.14777 -3.61,0.92479 -3.1306,2.05122 -17.8061,2.4321 -19.0044,0.49322 -0.3577,-0.57877 -2.3538,-0.71162 -4.4357,-0.29522 -2.082,0.4164 -4.9411,0.13861 -6.3535,-0.61731 -1.4497,-0.77587 -3.3558,-0.88755 -4.3769,-0.25645 -1.0389,0.64204 -2.8069,0.49468 -4.1533,-0.34615 -1.7202,-1.07432 -2.843,-1.0502 -4.2176,0.0907 -1.4311,1.18764 -2.257,1.17109 -3.4982,-0.07 -0.9062,-0.90627 -5.5798,-1.7136 -10.5682,-1.82562 -4.919,-0.1104 -8.9435,-0.33064 -8.9435,-0.48929 0,-0.15867 -3.9,-0.45661 -8.6667,-0.66211 -4.7667,-0.2055 -9.7213,-0.80585 -11.0103,-1.33413 -1.3544,-0.55507 -3.6055,-0.13803 -5.3333,0.98807 -2.3026,1.50072 -4.9524,1.71544 -11.5294,0.93429 -4.6968,-0.55785 -9.3544,-0.7016 -10.3503,-0.31945 -0.9959,0.38214 -2.553,0.12253 -3.4603,-0.57687 -0.9074,-0.69943 -5.2497,-1.17437 -9.6497,-1.05544 -4.4,0.11893 -8.6,-0.22297 -9.3334,-0.75977 -0.7333,-0.5368 -2.8333,-1.017 -4.6666,-1.06712 -1.8334,-0.0501 -5.7334,-0.1567 -8.6667,-0.23684 -2.9333,-0.0801 -6.0833,-0.76559 -7,-1.5232 -1.1551,-0.95466 -2.2262,-0.91306 -3.4897,0.13557 -1.3836,1.14825 -2.2117,1.04489 -3.4346,-0.42869 -1.2364,-1.48974 -2.3246,-1.61682 -4.6749,-0.54594 -2.0777,0.94664 -3.8731,0.96247 -5.5797,0.0492 -1.3839,-0.74064 -4.0894,-1.04586 -6.0123,-0.67828 -1.9229,0.36759 -3.8857,0.038 -4.3619,-0.73233 -0.4761,-0.77036 -1.7688,-1.05409 -2.8726,-0.63051 -1.1038,0.42358 -3.0986,-0.21777 -4.4328,-1.42521 -3.3799,-3.05881 -5.2071,-0.51611 -5.4193,7.54133 -0.092,3.48183 -0.2287,7.0806 -0.3047,7.99727 -0.076,0.91667 0.607,5.19044 1.5175,9.49728 1.4587,6.89999 1.3768,8.44864 -0.6894,13.03073 -2.1924,4.86179 -2.2231,6.86802 -0.472,30.83606 1.0301,14.09976 1.7681,34.93593 1.6399,46.30259 -0.3922,34.7884 -0.2992,43.53186 0.8082,76 0.5878,17.23334 0.5698,32.31318 -0.04,33.51078 -0.9987,1.96146 0.6806,61.48545 2.3797,84.34837 0.4363,5.87069 0.1044,10.27385 -0.9183,12.18494 -1.1564,2.16074 -1.3757,8.77782 -0.789,23.80752 0.4469,11.44828 1.1782,30.18183 1.6251,41.63011 0.6,15.36898 0.3793,21.62456 -0.8432,23.90897 -1.1536,2.15549 -1.4023,6.45788 -0.8201,14.18493 0.4596,6.10007 1.2243,20.5433 1.6992,32.09606 l 0.8635,21.00502 -3.5098,3.25275 c -3.8454,3.56375 -3.5706,7.51209 0.4496,6.46079 2.0788,-0.54362 2.6353,0.39062 3.4436,5.78049 0.5755,3.83808 0.3476,8.73375 -0.5657,12.14821 -0.8413,3.14563 -1.5296,7.74262 -1.5296,10.21552 0,3.98271 -0.4597,4.56367 -4.0253,5.08699 -2.4106,0.3538 -4.6267,-0.13384 -5.5245,-1.21564 -1.2589,-1.51684 -1.8427,-1.50569 -3.6414,0.0695 -2.5772,2.2569 -7.3743,3.84806 -8.4272,2.79519 z M 1047.1896,408.50453 c -0.3445,-0.55737 -2.3298,-0.67273 -4.4118,-0.25633 -2.0819,0.4164 -4.941,0.13861 -6.3534,-0.61731 -1.5163,-0.81146 -3.3395,-0.89762 -4.4515,-0.21036 -1.0442,0.64532 -2.4976,0.65632 -3.2615,0.0247 -0.758,-0.62664 -2.8781,-1.1688 -4.7114,-1.2048 -1.8334,-0.036 -4.3834,-0.0889 -5.6667,-0.11773 -1.2833,-0.0288 -3.0833,-0.0591 -4,-0.0673 -3.0149,-0.0272 -13.6667,-1.04916 -13.6667,-1.31117 0,-0.14107 -4.20005,-0.53335 -9.33335,-0.87175 -5.1334,-0.3384 -9.8627,-1.14161 -10.5096,-1.7849 -0.6757,-0.6719 -2.8326,0.0549 -5.0684,1.70796 -3.3287,2.46096 -4.0724,2.59265 -5.1367,0.90958 -1.7977,-2.84284 -1.6215,-29.76513 0.2068,-31.59342 1.1006,-1.1006 1.0659,-8.60502 -0.132,-28.6 -0.8933,-14.90931 -1.4147,-31.30785 -1.1588,-36.44119 l 0.4653,-9.33333 6.834,0.15201 c 3.7586,0.0836 7.3586,0.45655 8,0.82876 2.151,1.24838 10.8257,0.29484 12.888,-1.41668 1.4718,-1.22148 2.29725,-1.27852 2.96095,-0.2046 0.5061,0.81894 1.6667,1.20252 2.5791,0.85243 0.9123,-0.35011 5.5016,-0.15587 10.1984,0.43164 6.3254,0.79123 9.5278,0.59483 12.3505,-0.75743 2.489,-1.19234 4.5952,-1.40588 6.0719,-0.61557 1.2435,0.66552 3.0649,0.71319 4.0475,0.10587 0.9825,-0.60727 3.3502,-0.61604 5.2615,-0.0195 7.1278,2.22473 13.2791,2.48557 14.8204,0.62845 1.5852,-1.9101 15.41,-1.99068 18.4569,-0.1076 0.8552,0.52854 2.5995,0.63592 3.8762,0.23867 5.2859,-1.64467 8.3214,4.14164 8.3214,15.86205 0,5.16782 -0.8147,10.3961 -1.9674,12.62518 -1.627,3.14632 -1.7271,5.76986 -0.5782,15.16224 1.1393,9.31386 1.0424,12.03627 -0.5384,15.12914 -1.3916,2.72277 -1.7419,6.58679 -1.2599,13.89552 0.5148,7.80441 0.1506,11.21389 -1.5897,14.88109 -1.6626,3.50376 -1.9609,5.93019 -1.1322,9.20938 1.9565,7.74233 0.8,11.37206 -3.9247,12.31701 -2.2969,0.45936 -4.7445,0.26685 -5.4391,-0.4278 -0.7952,-0.79512 -2.3078,-0.58487 -4.0834,0.56757 -2.9579,1.91987 -17.8347,2.25683 -18.964,0.42954 z m 151.4774,729.56587 c -0.034,-11.6293 1.0332,-22.2819 2.5081,-25.0378 0.8204,-1.5328 1.4915,-4.9658 1.4915,-7.6289 0,-2.6631 0.7226,-6.1525 1.6057,-7.7543 0.883,-1.6018 1.6744,-7.1124 1.7586,-12.2457 0.097,-5.8965 0.9784,-10.9045 2.3944,-13.6003 1.2328,-2.347 2.2413,-6.4364 2.2413,-9.0877 0,-2.6513 0.7337,-6.1311 1.6304,-7.7329 1.6035,-2.8643 2.4333,-11.2398 2.3886,-24.1068 -0.012,-3.5902 0.6256,-7.3089 1.4181,-8.2638 1.8017,-2.1709 5.6784,-24.91011 7.1392,-41.87511 0.7818,-9.0805 2.987,-20.6873 4.4641,-23.4962 1.8944,-3.6025 3.4312,-13.6041 3.0784,-20.0347 -0.1669,-3.042 0.3381,-5.9274 1.1222,-6.41202 0.7841,-0.48461 1.4257,-3.28516 1.4257,-6.22342 0,-2.93827 0.7272,-6.65286 1.6159,-8.25464 0.8887,-1.60179 2.4113,-10.11235 3.3835,-18.91235 0.9721,-8.8 2.1111,-18.97205 2.5311,-22.60456 0.4199,-3.6325 1.6093,-7.8955 2.6432,-9.47333 1.0338,-1.57783 1.8447,-5.50579 1.8021,-8.72877 -0.1378,-10.41356 0.9477,-20.60278 2.5048,-23.51236 0.8357,-1.56146 1.5194,-5.54303 1.5194,-8.84796 0,-3.30494 0.4975,-6.31642 1.1055,-6.69219 1.874,-1.15821 4.6479,-15.04043 3.8262,-19.1488 -0.4529,-2.26479 0.025,-5.43063 1.1457,-7.59096 1.0574,-2.03824 1.9226,-6.33221 1.9226,-9.54217 0,-4.3923 0.6598,-6.24834 2.6667,-7.50166 3.0914,-1.93061 3.2847,-3.7919 1.0391,-10.00206 -1.3258,-3.66648 -1.2936,-4.70718 0.1735,-5.61392 1.3238,-0.81814 1.557,-2.74016 0.8802,-7.25335 -0.6857,-4.57293 -0.3897,-6.89848 1.1599,-9.11074 1.1496,-1.64134 2.0806,-5.70151 2.0806,-9.07384 0,-3.35683 0.5472,-6.67332 1.216,-7.36999 1.3492,-1.40535 2.898,-13.98848 2.8639,-23.26667 -0.02,-5.43476 2.894,-15.96241 5.3512,-19.33333 0.9486,-1.30128 2.0285,-9.87388 3.1072,-24.66667 0.7959,-10.91424 3.0885,-22.82676 4.7038,-24.44213 0.7835,-0.78349 1.4246,-4.56912 1.4246,-8.41251 0,-3.84338 0.6359,-7.38104 1.4132,-7.86142 0.8944,-0.55279 1.0902,-3.45956 0.5332,-7.91751 -0.5734,-4.58933 -0.3689,-7.35996 0.5867,-7.95058 0.8068,-0.4986 1.4669,-3.60094 1.4669,-6.89408 0,-3.29314 0.9102,-7.74782 2.0228,-9.8993 1.1126,-2.15148 2.0165,-5.57168 2.0087,-7.60045 -0.043,-11.24312 1.0553,-22.73677 2.416,-25.27929 0.8539,-1.59542 1.5525,-5.3613 1.5525,-8.36864 0,-3.00735 0.9431,-6.9073 2.0958,-8.66654 1.2381,-1.8896 2.2662,-6.91782 2.5123,-12.28642 0.229,-4.99828 1.0859,-10.77684 1.9041,-12.84126 0.8183,-2.0644 1.4878,-6.379 1.4878,-9.58797 0,-3.20899 0.5272,-6.16033 1.1715,-6.55856 1.1584,-0.71595 2.6335,-11.17753 3.3982,-24.1 0.2169,-3.66666 1.0455,-8.65104 1.8412,-11.0764 0.7957,-2.42534 1.1326,-5.22846 0.7486,-6.22914 -0.384,-1.00068 0.076,-3.2163 1.0224,-4.9236 1.9613,-3.53839 3.9943,-17.53638 3.8397,-26.43752 -0.057,-3.3 0.4312,-7.2 1.0856,-8.66667 4.682,-10.49372 5.5594,-13.40477 5.5594,-18.44524 0,-3.12845 0.6223,-6.31039 1.3829,-7.07097 1.9318,-1.93175 -0.3864,-7.50646 -4.451,-10.70364 -1.797,-1.41352 -3.6816,-4.45635 -4.188,-6.76184 -0.5355,-2.43818 -4.7882,-8.52292 -10.1656,-14.54484 -5.0847,-5.69418 -9.2524,-11.58015 -9.2616,-13.07992 -0.01,-1.49979 -3.2003,-6.02688 -7.0916,-10.06021 -3.8913,-4.03334 -8.3822,-10.03334 -9.9799,-13.33334 -3.1053,-6.41396 -17.5548,-22.66666 -20.1518,-22.66666 -0.9765,0 -1.5537,2.37198 -1.5411,6.33333 0.042,13.32505 -1.0955,28.82876 -2.3617,32.17707 -1.8451,4.87942 -3.163,14.97054 -3.5902,27.48959 -0.4469,13.0974 -2.1881,24.34058 -4.391,28.3533 -0.9118,1.66097 -1.6386,7.06097 -1.615,12 0.082,17.04618 -0.954,32.337 -2.3017,33.98922 -1.5744,1.93034 -2.9459,11.91546 -3.7073,26.99082 -0.857,16.97018 -1.95,25.02515 -4.009,29.54415 -1.3075,2.8696 -2.0489,10.31807 -2.3278,23.3847 -0.2251,10.54562 -0.9552,20.05074 -1.6223,21.1225 -1.8986,3.04988 -3.6302,15.57335 -3.8024,27.49947 -0.086,5.98629 -0.6072,11.33629 -1.1572,11.88889 -0.55,0.5526 -1,3.94418 -1,7.53683 0,3.59265 -0.678,7.79888 -1.5066,9.34719 -0.8286,1.54829 -1.4773,6.07145 -1.4416,10.05146 0.036,3.98002 -0.7264,9.47955 -1.6937,12.2212 -1.2717,3.60452 -1.4212,6.79151 -0.5398,11.50948 0.9316,4.98645 0.7431,7.71404 -0.7997,11.56971 -1.1102,2.77477 -2.0186,7.39749 -2.0186,10.2727 0,2.87522 -0.6456,5.62664 -1.4346,6.11428 -0.8583,0.53048 -1.3653,5.24838 -1.2621,11.74535 0.095,5.97232 -0.4887,14.75875 -1.2967,19.52541 -2.4182,14.26492 -4.7725,35.80007 -6.1824,56.55272 -0.4199,6.18102 -1.5768,11.86519 -2.7927,13.72084 -1.5919,2.42953 -1.8979,5.29068 -1.3125,12.27281 0.4848,5.783 0.2341,9.6339 -0.6872,10.5552 -0.7978,0.79778 -1.6422,4.92628 -1.8764,9.17447 -0.9859,17.88192 -2.1458,27.37649 -3.7136,30.39835 -1.2158,2.34345 -1.3515,5.57454 -0.5008,11.92365 0.7647,5.70776 0.6888,9.60243 -0.2204,11.30123 -0.763,1.42565 -1.4063,4.88153 -1.4297,7.67974 -0.023,2.79822 -0.9547,6.28766 -2.0697,7.75432 -1.3786,1.81323 -2.0146,5.65371 -1.9873,12 0.066,15.39571 -0.651,25.31615 -1.9795,27.38244 -1.2479,1.94073 -3.1542,18.3628 -3.6574,31.50583 -0.145,3.78856 -0.7137,7.33856 -1.2637,7.88886 -0.55,0.5504 -1,5.8806 -1,11.8451 0,6.7277 -0.6146,11.4591 -1.619,12.4635 -0.8915,0.8915 -1.78,5.9544 -1.9771,11.2667 -0.6974,18.7935 -1.4154,25.8883 -2.9008,28.66371 -0.8267,1.5447 -1.5031,7.048 -1.5031,12.2296 0,5.1815 -0.5385,9.421 -1.1967,9.421 -0.6582,0 -1.5837,8.25 -2.0566,18.3333 -0.4729,10.0833 -1.4344,19.3752 -2.1366,20.6486 -1.9585,3.5516 -1.5161,16.2541 0.7151,20.5322 1.0954,2.1005 1.9954,4.8337 2,6.0737 0,1.2401 0.6082,2.6255 1.3415,3.0787 0.7333,0.4533 1.3333,2.174 1.3333,3.8239 0,1.6499 0.881,4.1645 1.9576,5.588 1.0767,1.4235 1.9767,3.5481 2,4.7214 0.023,1.1733 1.8424,4.6181 4.0424,7.6551 2.2,3.0371 4,6.6124 4,7.9453 0,1.3328 0.881,3.588 1.9576,5.0115 1.0767,1.4235 1.9767,4.1647 2,6.0916 0.023,1.9269 0.9424,4.2503 2.0424,5.1632 1.1,0.913 2,2.7373 2,4.0543 0,1.3168 0.3835,3.3937 0.8523,4.6152 1.3992,3.6464 3.1682,-0.4757 3.1481,-7.3361 z M 120,1042.6902 c 0,-3.3258 0.9241,-7.4572 2.0535,-9.181 1.4231,-2.1719 2.0082,-6.1485 1.9058,-12.9531 -0.2071,-13.7645 0.6363,-22.66241 2.4706,-26.06471 0.8635,-1.6018 1.5701,-7.1163 1.5701,-12.2546 0,-5.4164 0.6229,-9.7273 1.4824,-10.2585 0.9598,-0.5932 1.1795,-3.1999 0.6231,-7.3941 -0.6026,-4.543 -0.2712,-7.615 1.1096,-10.2853 1.3915,-2.6907 1.7414,-6.0128 1.193,-11.3264 -0.5322,-5.1564 -0.2402,-8.1645 0.9294,-9.5739 1.014,-1.2217 1.8701,-6.77351 2.1113,-13.69158 0.6176,-17.71276 1.4019,-24.91006 3.0499,-27.98946 0.8257,-1.54283 1.5013,-7.00917 1.5013,-12.14744 0,-5.13827 0.6271,-9.72988 1.3935,-10.20359 0.7665,-0.4737 1.345,-3.65912 1.2856,-7.07869 -0.1949,-11.21183 1.608,-30.18121 3.0374,-31.95851 0.7701,-0.95761 1.5865,-6.65761 1.8143,-12.66666 0.7904,-20.8572 1.1447,-24.27447 2.8205,-27.20487 1.1198,-1.95829 1.4018,-5.35248 0.841,-10.12396 -0.5834,-4.96417 -0.284,-8.1678 0.971,-10.38736 0.998,-1.76516 1.9572,-6.50937 2.1315,-10.54271 0.1744,-4.03333 0.952,-12.73333 1.72806,-19.33333 0.7761,-6.6 1.7388,-16.79921 2.1393,-22.66493 0.4006,-5.86571 1.3469,-11.41025 2.1029,-12.32121 0.8185,-0.98623 1.0048,-4.12226 0.4606,-7.75164 -0.6252,-4.16854 -0.3776,-6.74174 0.7829,-8.14012 1.0768,-1.29748 1.5797,-5.2222 1.376,-10.73887 -0.2222,-6.01936 0.3079,-9.65383 1.723,-11.81363 1.1242,-1.71573 2.0579,-5.99578 2.0749,-9.51122 0.079,-16.31524 1.0027,-27.9789 2.427,-30.64019 0.8564,-1.60025 1.5571,-5.61357 1.5571,-8.91851 0,-3.30493 0.6706,-6.42341 1.4902,-6.92994 1.0208,-0.63091 1.2055,-4.18492 0.5862,-11.28363 -0.5939,-6.80934 -0.4191,-10.66225 0.5099,-11.2364 0.7991,-0.49388 1.4137,-5.36097 1.4137,-11.19506 0,-6.10674 0.6375,-10.95874 1.5611,-11.88234 1.608,-1.60801 2.4529,-9.55548 2.8675,-26.9723 0.131,-5.5 0.9881,-11.31056 1.9048,-12.91235 0.9166,-1.60179 1.6666,-7.11637 1.6666,-12.25464 0,-5.13827 0.6084,-9.71829 1.352,-10.17784 0.7435,-0.45955 1.3386,-3.94496 1.3223,-7.74536 -0.054,-12.6716 1.5328,-29.55272 2.9376,-31.2454 1.4739,-1.77596 2.3951,-10.6444 2.8045,-26.99774 0.1377,-5.5 0.7862,-10.83176 1.4413,-11.84835 0.655,-1.0166 1.768,-5.8166 2.4732,-10.66667 1.2307,-8.46412 1.5779,-12.81654 3.1496,-39.48498 0.3889,-6.6 1.265,-12.57 1.9467,-13.26667 0.6817,-0.69667 1.2608,-3.99667 1.2867,-7.33333 0.026,-3.33667 0.83219,-7.4822 1.79159,-9.2123 1.3035,-2.35083 1.4267,-4.87745 0.4876,-9.99999 -0.9975,-5.44138 -0.7943,-8.14655 0.9857,-13.12263 1.2332,-3.44755 1.857,-7.48203 1.3862,-8.96553 -0.4709,-1.48351 0.029,-4.66279 1.1103,-7.06508 1.1851,-2.6326 2.3104,-11.01423 2.8324,-21.09798 0.8921,-17.2327 0.576,-19.06062 -5.8701,-33.93649 -0.6355,-1.46667 -2.1959,-5.66667 -3.46749,-9.33333 -1.2715,-3.66667 -3.9367,-9.36667 -5.9226,-12.66667 -1.9858,-3.3 -3.9786,-7.5 -4.4283,-9.33333 -3.8776,-15.80861 -9.1571,-23.04377 -8.7225,-11.95372 0.116,2.95877 -0.4884,6.07877 -1.343,6.93333 -0.8545,0.85455 -1.5537,4.17316 -1.5537,7.37471 0,3.20154 -0.7182,7.13154 -1.596,8.73333 -0.8778,1.60179 -1.7703,6.21235 -1.9833,10.24568 -0.2129,4.03333 -0.5447,10.45308 -0.7372,14.26609 -0.1926,3.81302 -1.1001,7.68302 -2.0168,8.6 -0.9167,0.91699 -1.6667,2.92724 -1.6667,4.46724 0,1.54 -0.6798,3.47983 -1.5107,4.31072 -1.428,1.42806 -2.2992,8.55956 -2.8939,23.68928 -0.1441,3.66667 -0.8483,7.56667 -1.5649,8.66667 -0.7166,1.1 -1.7844,5.6 -2.373,10 -0.5885,4.4 -1.6641,11.9 -2.3901,16.66667 -0.7261,4.76666 -1.2845,11.21181 -1.2411,14.32254 0.043,3.11073 -0.6648,7.01073 -1.5739,8.66667 -1.79,3.2604 -3.68926,13.72402 -4.41866,24.34412 -0.4511,6.56774 -1.8324,13.25517 -4.4545,21.5663 -0.7345,2.32814 -1.0037,4.56475 -0.5981,4.97027 0.4055,0.40552 -0.246,3.31179 -1.4476,6.45837 -1.2017,3.14659 -2.1757,8.10996 -2.1645,11.02974 0.034,8.76806 -1.5219,21.22357 -2.8196,22.57532 -0.6688,0.69666 -1.216,3.87646 -1.216,7.06621 0,3.18975 -0.8771,7.49568 -1.9492,9.56873 -1.072,2.07307 -1.9439,6.39327 -1.9376,9.60046 0.016,8.39947 -1.3808,20.06562 -2.7746,23.16459 -0.6597,1.46667 -1.5083,5.36667 -1.8859,8.66667 -2.025,17.70019 -3.3205,25.24911 -5.2628,30.66667 -1.1831,3.3 -2.1599,8.48141 -2.1705,11.51425 -0.011,3.03284 -0.8564,7.12744 -1.8793,9.09909 -1.1158,2.15079 -1.5856,5.62946 -1.1743,8.69595 0.5481,4.08607 0.1189,5.59635 -2.1401,7.53057 -3.2079,2.74671 -3.5293,5.49044 -1.2334,10.52952 1.2343,2.70892 1.2343,4.06827 0,6.04464 -0.8758,1.40239 -1.5923,5.22252 -1.5923,8.48919 0,3.26668 -0.6,6.31023 -1.3334,6.76345 -0.7333,0.45323 -1.3333,4.05323 -1.3333,8 0,3.94678 -0.6575,7.58231 -1.4611,8.07896 -0.9234,0.57067 -1.1426,3.02692 -0.5956,6.67421 0.606,4.04115 0.2446,6.97179 -1.2056,9.77614 -1.1391,2.20272 -2.071,6.69932 -2.071,9.99245 0,3.29315 -0.5309,6.3156 -1.1796,6.71656 -1.5295,0.94528 -2.9191,7.55488 -3.5239,16.76168 -0.8609,13.10592 -2.6595,23.62589 -4.397302,25.71977 -0.9354,1.1271 -1.5653,4.6666 -1.3997,7.8656 0.1656,3.19899 -0.3104,6.90902 -1.0578,8.24451 -0.7473,1.33551 -1.0836,5.29216 -0.7473,8.79257 0.3729,3.88063 0.032,6.72288 -0.8748,7.28299 -0.8175,0.50524 -1.49,3.4332 -1.4945,6.50659 0,3.07338 -0.9265,7.34878 -2.048701,9.50089 -1.1223,2.15211 -1.9134,6.36749 -1.7581,9.36752 0.1553,3.00004 -0.363,6.60764 -1.1516,8.0169 -0.909,1.62418 -0.9977,3.70975 -0.2424,5.69627 0.8156,2.14533 0.5633,4.63728 -0.7998,7.89967 -1.0951,2.62114 -1.9912,7.13189 -1.9912,10.02388 0,2.89198 -0.6837,6.53569 -1.5194,8.09714 -0.8356,1.56144 -1.7268,5.872 -1.9804,9.57902 -0.7022,10.26541 -1.2195,13.14686 -2.9299,16.31902 -0.8637,1.60179 -1.5703,5.39123 -1.5703,8.42099 0,3.02976 -0.75,6.8192 -1.6667,8.42099 -0.9166,1.60178 -1.8153,5.61234 -1.997,8.91234 -0.1817,3.3 -0.5018,9.3 -0.7112,13.33334 -0.2095,4.03333 -0.9471,8.23333 -1.6391,9.33333 -0.6921,1.1 -1.7221,5.45 -2.2889,9.66667 -0.5667,4.21666 -1.6748,11.41666 -2.4624,15.99999 -0.7876,4.58334 -1.3986,11.03334 -1.3578,14.33334 0.041,3.3 -0.832,7.92696 -1.9396,10.28212 -1.1318,2.40657 -1.6554,5.71014 -1.1955,7.54248 0.45,1.7932 0.073,4.65213 -0.837,6.35317 -2.4694,4.61419 -4.157,11.67659 -4.5775,19.15559 -0.2061,3.6666 -0.8169,8.3578 -1.3573,10.4248 -0.8002,3.0606 -0.2699,4.5453 2.8571,8 4.3358,4.7901 7.1729,9.4483 7.1729,11.7772 0,0.8643 3.6,5.3205 8,9.9027 4.657,4.8498 8,9.5157 8,11.16601 0,1.6473 3.5524,6.6173 8.4804,11.8643 5.003301,5.3273 9.174601,11.1825 10.173601,14.2806 1.544902,4.7909 16.397502,21.9177 19.007402,21.9177 0.5529,0 1.0053,-2.7211 1.0053,-6.0469 z M 312.09175,177.90266 c 3.1923,1.11287 4.9666,1.02227 7.7041,-0.39336 2.0119,-1.04037 6.2726,-1.65608 9.81,-1.4176 4.1769,0.2816 6.7696,-0.20047 7.8081,-1.45181 0.8551,-1.03038 2.103,-1.53463 2.7729,-1.12055 2.3176,1.43233 18.6672,2.05545 20.2371,0.77128 0.8668,-0.70901 4.576,-1.17381 8.2426,-1.03288 3.6667,0.14093 8.0717,-0.46089 9.789,-1.33739 1.9912,-1.01633 4.506,-1.19677 6.942,-0.49812 2.101,0.60254 5.0491,0.77406 6.5515,0.38116 1.5025,-0.39289 3.5585,-0.0283 4.5689,0.81039 1.4189,1.17757 2.0254,1.03437 2.6636,-0.62892 0.6987,-1.82065 2.5587,-2.05383 12.0298,-1.50809 6.1618,0.35505 11.71,0.15945 12.3293,-0.4347 1.5217,-1.45993 8.6005,-1.91412 11.3515,-0.72832 1.2811,0.55219 3.5504,0.0913 5.3471,-1.0859 2.5327,-1.65948 4.7419,-1.81618 11.7134,-0.83075 5.5018,0.77767 9.1594,0.74353 10.1697,-0.0949 0.8677,-0.72016 4.923,-1.20007 9.0117,-1.06646 4.0887,0.13362 8.2062,-0.38381 9.15,-1.14981 1.7399,-1.41231 10.783,-1.24777 15.6092,0.28399 1.452,0.46086 4.32,0.0167 6.3733,-0.98702 3.8278,-1.87113 9.1347,-2.01401 15.1187,-0.40702 1.862,0.50002 5.162,0.1742 7.3334,-0.72406 2.1713,-0.89826 6.9479,-1.76118 10.6146,-1.91762 3.6667,-0.15644 9.3667,-0.58955 12.6667,-0.96246 3.3,-0.3729 6.5996,-0.31534 7.3325,0.12787 1.6939,1.02447 8.9113,0.31179 10.6675,-1.05336 1.5953,-1.24013 10.0416,-1.02172 12.1822,0.31503 0.8336,0.52054 2.2003,0.12146 3.0372,-0.88696 1.1166,-1.34547 4.0445,-1.68715 11.0014,-1.28384 5.2139,0.30225 9.9291,0.82728 10.4784,1.16673 0.5492,0.33945 1.6873,-0.21269 2.5291,-1.22699 1.4678,-1.76856 2.6601,-1.80152 17.1956,-0.47534 2.4332,0.222 4.9904,-0.27882 5.6827,-1.11291 1.1608,-1.39875 3.6261,-1.41412 17.2267,-0.10733 2.5666,0.2466 5.4457,-0.147 6.3978,-0.87467 2.3047,-1.76135 9.8396,-2.0498 11.9605,-0.45787 1.1417,0.85691 2.5002,0.53804 4.1785,-0.98074 1.9481,-1.76308 3.8941,-2.06379 8.985,-1.38847 5.5498,0.73621 6.8669,0.45468 9.0239,-1.92881 1.9988,-2.20862 2.9205,-2.46322 4.4181,-1.22036 2.7599,2.29057 15.0826,2.53882 18.1842,0.36633 1.8231,-1.27696 3.323,-1.43117 5.0308,-0.51723 1.3382,0.7162 3.902,0.93354 5.6972,0.48295 1.7953,-0.45057 4.3421,-0.21597 5.6596,0.52135 1.6496,0.92316 3.2366,0.86358 5.0966,-0.19132 1.4856,-0.84255 5.8089,-1.5832 9.6074,-1.6459 3.7984,-0.0627 7.8221,-0.8741 8.9416,-1.80316 1.1194,-0.92904 2.7629,-1.23946 3.6523,-0.68982 3.0443,1.88148 16.1926,1.72286 19.175,-0.23131 1.5791,-1.03463 3.2895,-1.46271 3.8009,-0.95128 1.1613,1.16131 11.8705,0.60491 12.8228,-0.6662 0.8629,-1.15168 9.5363,-1.16983 11.3678,-0.0237 2.5367,1.58734 10.2659,0.36646 11.9094,-1.88119 1.2125,-1.6582 2.0439,-1.86273 3.1352,-0.77135 2.0558,2.0558 10.8839,2.11808 12.5666,0.0887 1.7041,-2.05516 6.9769,-2.15933 10.6196,-0.20981 1.8943,1.0138 3.1462,1.03278 4.1166,0.0624 0.9626,-0.96262 2.1913,-0.96795 3.9678,-0.0172 1.9461,1.04152 3.1552,0.85056 4.9608,-0.78344 1.9033,-1.72252 4.1114,-1.99686 10.889,-1.35286 4.6759,0.44428 11.2864,0.2584 14.69,-0.41308 3.6214,-0.71444 7.066,-0.72973 8.3041,-0.0368 1.3638,0.76319 3.1924,0.52703 5.145,-0.66446 3.012,-1.83798 15.4252,-2.06666 18.2259,-0.33576 0.7671,0.47406 2.8919,-0.11907 4.7218,-1.31808 2.3367,-1.53106 4.8286,-1.93694 8.371,-1.36346 3.2434,0.52508 6.319,0.1393 8.6163,-1.08076 1.9648,-1.04352 3.9645,-1.5049 4.4437,-1.02528 1.3129,1.31407 17.11,1.40498 18.7238,0.10776 0.7737,-0.62187 4.9737,-0.79744 9.3334,-0.39014 11.0873,1.03582 12.5959,0.89869 15.1063,-1.37317 1.5017,-1.35904 2.8486,-1.60327 4.1841,-0.75871 3.0437,1.92472 10.1234,1.51085 11.9574,-0.69903 0.9062,-1.09192 2.1873,-1.65182 2.8468,-1.2442 2.3329,1.44178 17.42645,2.00614 18.98815,0.70998 0.8715,-0.72326 4.763,-1.18244 8.6477,-1.0204 3.8848,0.16204 7.3756,-0.21087 7.7574,-0.82868 0.3819,-0.61781 5.7641,-0.88913 11.9606,-0.60292 6.1965,0.28622 11.6068,-0.0304 12.0228,-0.70353 0.416,-0.67315 1.8223,-0.94518 3.125,-0.60451 1.3027,0.34067 3.1649,0.12727 4.1382,-0.47424 0.9732,-0.6015 2.4273,-0.54771 3.2313,0.11954 0.804,0.66725 3.775,1.08292 6.6022,0.92373 4.3295,-0.24379 5.3365,-0.87863 6.3833,-4.02387 1.7855,-5.36513 -1.0052,-11.59916 -5.1922,-11.59916 -2.1965,0 -6.1958,-3.08761 -12.953,-10 -7.171,-7.335697 -10.6922,-9.999997 -13.2163,-9.999997 -1.8924,0 -3.6408,-0.54965 -3.8853,-1.22143 -0.2444,-0.67179 -4.8079,-5.77179 -10.141,-11.33333 -7.4682,-7.7881 -10.5324,-10.10716 -13.3333,-10.09126 -2.608,0.0148 -4.9568,-1.50725 -8.3034,-5.38074 -4.4397,-5.13862 -5.1018,-5.42968 -13.61125,-5.98321 -4.9194,-0.32001 -9.2408,-0.10231 -9.603,0.48379 -0.3622,0.58609 -4.0008,0.94849 -8.0857,0.80534 -4.0849,-0.14316 -7.7575,0.2743 -8.1613,0.92767 -0.4038,0.65337 -3.9907,1.08154 -7.9709,0.95147 -5.0344,-0.16451 -7.9557,0.41425 -9.5994,1.90183 -1.6165,1.46286 -2.9849,1.74489 -4.3323,0.89283 -3.0404,-1.9226 -9.267,-1.51266 -11.5394,0.75973 -1.3162,1.3162 -2.5902,1.60576 -3.5715,0.81177 -2.0658,-1.67156 -17.811,0.64424 -22.6456,3.33073 -2.5929,1.44081 -4.219,1.67222 -5.1573,0.73391 -1.4767,-1.47672 -10.1256,-0.61195 -12.5118,1.25101 -0.8008,0.62522 -1.8106,0.78222 -2.2439,0.34891 -1.2802,-1.28028 -10.8974,-1.43984 -11.7548,-0.19502 -1.1852,1.72078 -11.6584,2.44095 -12.6303,0.86849 -0.5362,-0.86767 -1.7031,-0.59427 -3.1841,0.74608 -1.656,1.49863 -4.5092,2.02476 -9.7835,1.80405 -5.5227,-0.23109 -8.1069,0.28673 -10.0054,2.00488 -2.1289,1.92668 -2.8119,2.01249 -4.0588,0.51001 -1.8704,-2.25363 -9.6162,-1.40127 -11.7552,1.29355 -1.0771,1.357 -1.8151,1.49119 -2.4603,0.44733 -0.5398,-0.87341 -2.4735,-1.15031 -4.6677,-0.66839 -2.2014,0.48351 -4.1279,0.20498 -4.6721,-0.67546 -0.6595,-1.06718 -1.5592,-0.94792 -3.1269,0.41451 -3.0416,2.64328 -9.5388,3.6141 -12.3669,1.84788 -1.8348,-1.14583 -2.9343,-0.94119 -5.0033,0.9312 -2.0506,1.85581 -3.6542,2.16315 -7.0746,1.35591 -5.3351,-1.25914 -7.7507,-0.9002 -10.5077,1.56142 -1.5649,1.39715 -2.4654,1.481 -3.6102,0.33617 -1.1448,-1.14482 -2.0182,-1.11621 -3.5013,0.11471 -1.0869,0.902 -5.4623,1.77877 -9.7232,1.94838 -4.2609,0.1696 -9.0607,1.0278 -10.6662,1.9071 -1.9016,1.04148 -3.2071,1.13273 -3.7454,0.26178 -1.1826,-1.91351 -4.7273,-1.63766 -9.2479,0.71966 -2.1517,1.12209 -4.8517,1.63531 -6,1.14048 -2.6483,-1.14129 -10.9975,-0.62278 -12.7543,0.79209 -0.7333,0.5906 -4.313,0.86879 -7.9548,0.6182 -3.6418,-0.25059 -7.4002,0.19064 -8.3519,0.98052 -1.0118,0.83974 -4.1375,1.10622 -7.5266,0.64169 -3.9002,-0.53457 -6.611,-0.19868 -8.2869,1.02679 -1.6946,1.23912 -4.6787,1.59541 -9.3362,1.11471 -4.1978,-0.43324 -7.1883,-0.15193 -7.7317,0.72731 -0.5505,0.89073 -3.3884,1.13749 -7.492,0.65147 -4.3726,-0.51787 -7.2843,-0.21933 -8.6126,0.88306 -1.1036,0.91598 -2.8187,1.3538 -3.8112,0.97294 -0.9925,-0.38086 -2.63,-0.18231 -3.639,0.44123 -1.0562,0.65278 -2.5197,0.56491 -3.4499,-0.20713 -1.1097,-0.92098 -2.9264,-0.66298 -5.8018,0.82392 -2.3024,1.19061 -4.8955,1.9066 -5.7624,1.59108 -0.867,-0.31551 -2.6151,0.33085 -3.8846,1.436367 -1.9046,1.65844 -2.6725,1.70786 -4.3899,0.28253 -1.5261,-1.266557 -2.4767,-1.332317 -3.5626,-0.24643 -1.0681,1.0681 -2.2312,1.07963 -4.1713,0.0414 -2.1164,-1.132667 -3.032,-0.972237 -4.293,0.75224 -0.9433,1.29012 -2.5023,1.84678 -3.7892,1.35298 -1.2025,-0.46145 -2.9991,-0.16447 -3.9925,0.65995 -1.3633,1.13149 -2.2092,1.01324 -3.4504,-0.48239 -1.4526,-1.75021 -2.1142,-1.73836 -5.6722,0.10156 -2.6213,1.3555 -5.5887,1.79007 -8.4974,1.24441 -3.079,-0.57763 -5.5195,-0.15048 -7.8447,1.37305 -2.6307,1.72375 -3.7924,1.86528 -5.2668,0.64168 -2.2761,-1.88901 -12.7617,0.44921 -12.7617,2.84579 0,0.83864 -1.0558,0.53307 -2.4182,-0.69986 -1.8934,-1.71347 -2.7688,-1.83791 -4.0333,-0.57337 -1.2302,1.23017 -2.2019,1.2486 -4.0774,0.0774 -1.7349,-1.0835 -2.8798,-1.1201 -3.876,-0.12391 -1.8542,1.85417 -10.6343,2.61644 -11.6274,1.00947 -0.4454,-0.72067 -2.0647,-0.40537 -3.8179,0.74341 -1.8996,1.24463 -5.6012,1.8836 -9.8427,1.69905 -4.8473,-0.21091 -7.5173,0.35502 -9.3042,1.97213 -1.8301,1.65623 -2.9036,1.87037 -3.98,0.79395 -1.0764,-1.07641 -3.2841,-1.03973 -8.1851,0.13601 -3.6912,0.8855 -7.3228,1.23205 -8.0702,0.77011 -0.7474,-0.46194 -2.8562,0.14112 -4.6861,1.34013 -2.4133,1.58126 -4.7752,1.93537 -8.5994,1.28928 -3.8189,-0.6452 -6.1861,-0.29203 -8.5871,1.28117 -2.2395,1.46737 -3.6021,1.70696 -4.2006,0.7386 -0.9383,-1.51818 -7.6108,-1.13533 -11.9544,0.68592 -3.0929,1.29682 -8.701,1.41445 -11.745,0.24635 -1.2054,-0.46255 -4.0276,0.0749 -6.2715,1.19432 -2.6031,1.29857 -5.5433,1.71391 -8.1226,1.1474 -2.7264,-0.59882 -5.1053,-0.1916 -7.3066,1.25071 -2.6769,1.754 -3.7412,1.84059 -5.9174,0.48149 -2.1321,-1.3315 -3.5106,-1.30251 -7.0152,0.14756 -2.399,0.99258 -7.5132,1.69445 -11.365,1.5597 -3.8518,-0.13475 -7.7518,0.22201 -8.6667,0.79279 -2.3774,1.48331 -10.7239,1.65892 -12.4864,0.26273 -0.9226,-0.73081 -2.1269,-0.41239 -3.1633,0.83635 -0.9204,1.10904 -2.9665,2.01644 -4.5469,2.01644 -1.5804,0 -4.2327,0.95207 -5.894,2.11572 -1.9112,1.33865 -3.6117,1.67445 -4.63,0.91428 -2.1431,-1.59986 -9.6963,-1.171 -11.923,0.67696 -1.0741,0.89144 -2.5201,1.01386 -3.6593,0.3098 -1.076,-0.665 -2.827,-0.65906 -4.0843,0.0139 -1.3766,0.73673 -2.7557,0.62317 -3.682,-0.30319 -1.0188,-1.01881 -2.019,-1.05518 -3.2043,-0.11652 -2.5315,2.00463 -9.3749,2.97915 -11.8014,1.68053 -1.3754,-0.73605 -3.3892,-0.28613 -5.8011,1.29604 -3.0577,2.00583 -4.3748,2.16663 -7.6429,0.93307 -3.2329,-1.22028 -4.6902,-1.06479 -8.0403,0.85793 -2.3896,1.37144 -4.7183,1.88418 -5.5979,1.23254 -1.881,-1.3934 -9.0741,-1.11418 -11.6058,0.45052 -2.6041,1.60941 -11.7307,1.95849 -12.6422,0.48354 -0.4086,-0.66109 -2.4966,-0.29513 -4.6399,0.81326 -2.6542,1.37252 -5.6176,1.7401 -9.2917,1.15258 -4.1026,-0.65602 -5.9987,-0.31605 -7.9164,1.41948 -2.027,1.83436 -3.0766,1.98519 -5.3497,0.76867 -3.1938,-1.70929 -8.071,-0.66343 -8.0401,1.72411 0.035,2.67684 2.1702,5.13368 4.1215,4.74165 1.022,-0.20532 3.8622,0.69203 6.3117,1.99407 2.4496,1.30205 5.3223,2.03408 6.3838,1.6267 1.0616,-0.40736 2.2629,0.1264 2.6695,1.18611 0.8263,2.15309 5.3702,4.03339 8.6223,3.56791 1.171,-0.16762 2.8945,0.6174 3.8299,1.74448 0.9354,1.12706 2.5846,2.04922 3.665,2.04922 1.0803,0 3.6524,1.20207 5.7157,2.67127 2.1443,1.52689 4.6981,2.308 5.9612,1.82331 1.4982,-0.57491 3.3673,0.5386 5.8045,3.45797 3.0013,3.59513 4.6598,4.37296 10.0466,4.71204 3.5485,0.22336 7.0967,1.05092 7.8848,1.83903 1.0217,1.02169 1.9315,1.01916 3.1702,-0.009 1.2453,-1.03357 2.9114,-1.03241 5.8847,0.004 z"
       id="path216" />
  </g>
</svg>
